<svg width="43" height="56" viewBox="0 0 43 56" fill="none" xmlns="http://www.w3.org/2000/svg">
    <path fill-rule="evenodd" clip-rule="evenodd" d="M35.4924 33.8086C35.6299 34.0907 35.6712 34.4131 35.6095 34.7228C35.5684 35.2488 35.6696 35.7763 35.9016 36.2455C35.9669 36.383 36.0621 36.5027 36.1795 36.5953C36.2638 36.6753 36.3216 36.781 36.3447 36.8973C36.3678 37.0136 36.355 37.1345 36.3082 37.2428C36.1886 37.5572 36.1509 37.8988 36.1988 38.2333C36.2004 38.7102 36.2348 39.1864 36.3017 39.6582C36.3423 39.9567 36.2828 40.2606 36.1332 40.5187C35.9891 40.7889 35.8202 41.0439 35.6288 41.2801C35.4553 41.4926 35.2306 41.6533 34.9777 41.7453C34.4791 41.8979 34.0489 42.2305 33.7643 42.6835C33.5456 43.0494 33.1866 43.2465 32.9382 43.5749C32.8762 43.6448 32.8105 43.7111 32.7413 43.7733C32.6773 43.8476 32.6345 43.939 32.6177 44.0373C32.6009 44.1356 32.6107 44.2368 32.6461 44.3295C32.6461 44.4059 32.7195 44.4636 32.7413 44.5427C33.0281 45.1707 33.1225 45.8755 33.0115 46.5613C32.9967 46.6599 32.9967 46.7603 33.0115 46.8589C33.042 47.0327 33.0135 47.2122 32.9308 47.3665C32.8482 47.5208 32.7166 47.6404 32.5586 47.7047C32.4192 47.7802 32.272 47.8391 32.1198 47.8803C31.8889 47.9744 31.6758 48.1105 31.4906 48.2824C31.3517 48.4044 31.3375 48.4808 31.4327 48.7315C31.4761 48.8832 31.4761 49.0448 31.4327 49.1966C31.3452 49.6228 31.25 50.0491 31.1548 50.4767C31.1383 50.5706 31.104 50.6601 31.0539 50.74C31.0037 50.8198 30.9387 50.8885 30.8627 50.9418C30.6092 51.1347 30.4137 51.3987 30.2991 51.7031C30.2335 51.8479 30.182 51.9927 30.1087 52.1294C29.9989 52.3757 29.8666 52.6105 29.7136 52.8304C29.3482 53.3331 28.9828 53.8049 28.5736 54.2928C28.3711 54.5284 28.1401 54.7357 27.8865 54.9095C27.774 55.0008 27.6412 55.0612 27.5005 55.085C27.386 55.0749 27.2707 55.0917 27.1632 55.1339C27.0557 55.1761 26.9586 55.2427 26.879 55.329C26.5573 55.3826 26.2433 55.6266 25.892 55.4362C25.744 55.3755 25.5794 55.3755 25.4314 55.4362C25.3331 55.463 25.2298 55.463 25.1316 55.4362C25.0389 55.4099 24.9414 55.4084 24.848 55.4318C24.7547 55.4553 24.6685 55.5029 24.5976 55.5703C24.5464 55.6216 24.4835 55.6585 24.4148 55.6775C24.0375 55.7208 23.6682 55.821 23.3185 55.9751C23.2212 56.0083 23.1161 56.0083 23.0187 55.9751C22.7704 55.8839 22.616 55.5944 22.3394 55.5729C22.3073 55.5304 22.2849 55.4809 22.2737 55.4281C22.2623 55.2122 22.1995 55.0027 22.091 54.8183C22.0282 54.7188 21.9947 54.6023 21.9947 54.4832C21.9947 54.3641 22.0282 54.2476 22.091 54.1481C22.155 54.0323 22.1887 53.901 22.1887 53.7674C22.1887 53.6338 22.155 53.5025 22.091 53.3868C21.8067 52.8359 21.5765 52.2566 21.4039 51.6576C21.2936 51.2855 21.1035 50.9446 20.848 50.6604C20.4921 50.2806 20.2703 49.7863 20.2188 49.2583C20.1271 48.8341 20.0613 48.4043 20.0219 47.9714C20.033 47.9135 20.033 47.8538 20.0219 47.7959C19.8845 47.4224 19.8296 47.0216 19.8611 46.623C19.8806 46.2291 19.7836 45.8384 19.5831 45.5037C19.3411 45.0867 19.1402 44.6453 18.9835 44.1861C18.8397 43.7622 18.6377 43.3622 18.3839 42.9985C18.2125 42.7389 18.1225 42.4303 18.1266 42.1152C18.078 41.541 18.1451 40.9625 18.3234 40.4169C18.3817 40.2097 18.4247 39.9982 18.4521 39.7842C18.5183 39.2389 18.7574 38.7322 19.1315 38.3446C19.2544 38.2209 19.3317 38.0564 19.3502 37.8795C19.3665 37.7027 19.3936 37.5272 19.4313 37.354C19.4689 37.1561 19.4296 36.9507 19.322 36.783C19.2048 36.6148 19.1249 36.4217 19.0882 36.2174C19.0515 36.0132 19.0588 35.803 19.1096 35.6021C19.1352 35.5047 19.1352 35.4019 19.1096 35.3045C19.032 34.9407 18.9195 34.586 18.7738 34.2456C18.6251 33.9941 18.5259 33.7143 18.4817 33.4226C18.409 33.0015 18.2315 32.6077 17.967 32.2805C17.6093 31.8007 17.1705 31.4052 16.8334 30.9026C16.689 30.6625 16.5691 30.4073 16.4757 30.1412C16.4302 30.0435 16.4103 29.9351 16.418 29.8268C16.4257 29.7185 16.4607 29.6143 16.5194 29.5247C16.6649 29.2666 16.7385 28.9713 16.7317 28.6721C16.7676 28.2587 16.8334 27.8487 16.9286 27.4457L16.9723 27.1561C16.9864 27.0281 16.9735 26.8984 16.9344 26.7761C16.8952 26.6538 16.8309 26.542 16.7459 26.4484C16.6287 26.2565 16.4581 26.1065 16.257 26.0181C16.0559 25.9298 15.8337 25.9074 15.62 25.9538C15.4373 25.9994 15.2468 26.0302 15.0641 26.0878C14.9804 26.1237 14.8899 26.1392 14.7996 26.1329C14.7092 26.1266 14.6214 26.0989 14.543 26.0517C14.4646 26.0046 14.3976 25.9394 14.3472 25.861C14.2968 25.7827 14.2643 25.6934 14.2522 25.5999C14.1796 25.3587 14.0682 25.132 13.9228 24.9297C13.8726 24.8528 13.8063 24.7888 13.729 24.7424C13.6517 24.696 13.5653 24.6683 13.4763 24.6616C12.8234 24.5752 12.1607 24.6973 11.5758 25.0115C11.5469 25.0326 11.5147 25.048 11.4805 25.0571C10.9315 25.2282 10.4001 25.4554 9.89398 25.7353C9.74785 25.7916 9.58719 25.7916 9.44106 25.7353L9.20042 25.6442C8.80511 25.5073 8.38707 25.4564 7.97212 25.4944C7.55716 25.5325 7.15409 25.6587 6.78779 25.8653C6.62872 25.9511 6.45222 25.9959 6.2731 25.9959C6.09398 25.9959 5.91748 25.9511 5.75841 25.8653C5.35768 25.7039 5.00111 25.4424 4.72 25.1039C4.58689 24.9278 4.41992 24.7826 4.22978 24.6777C4.15023 24.6351 4.07838 24.5784 4.01746 24.5101C3.77664 24.2082 3.46052 23.9814 3.10388 23.8547C3.06828 23.8505 3.03423 23.8372 3.00481 23.8159C2.97539 23.7946 2.9515 23.766 2.93531 23.7327C2.81821 23.4512 2.57758 23.23 2.56214 22.8949C2.55312 22.7297 2.51065 22.5682 2.43746 22.4213C2.36428 22.2744 2.26205 22.1453 2.13753 22.0424C1.92522 21.8521 1.80813 21.5774 1.61126 21.3951C1.41281 21.226 1.25725 21.0087 1.1583 20.7623C1.11455 20.6712 1.01162 20.6632 0.931844 20.6484C0.872564 20.6081 0.816247 20.5633 0.763305 20.5143C0.360555 20.1645 0.354115 20.1484 0.346395 19.5854C0.346395 19.3723 0.433893 19.1592 0.346395 18.9381C0.244916 18.7657 0.132709 18.6005 0.0105341 18.4434C-0.000461773 18.4126 -0.00290442 18.3791 0.00346582 18.3469C0.00983606 18.3147 0.0247823 18.285 0.0465823 18.2612C0.338882 17.983 0.519121 17.5999 0.550982 17.1888C0.589103 16.9758 0.645533 16.7667 0.71956 16.5642C0.809931 16.3201 0.852613 16.0597 0.8451 15.7982C0.837588 15.5367 0.779997 15.2794 0.675776 15.0414C0.650474 14.9881 0.637333 14.9294 0.637333 14.8699C0.637333 14.8104 0.650474 14.7517 0.675776 14.6983C0.732171 14.5619 0.749081 14.4114 0.72439 14.2652C0.699699 14.119 0.634521 13.9834 0.536845 13.8753C0.403544 13.7194 0.323945 13.5217 0.310661 13.3134C0.297377 13.1051 0.351157 12.8981 0.463492 12.7252C0.616614 12.4129 0.763285 12.1006 0.888099 11.7735C0.973017 11.535 1.08859 11.3095 1.23166 11.1033C1.49971 10.7545 1.6853 10.345 1.7734 9.90769C1.79341 9.76368 1.84206 9.62557 1.9163 9.50231C1.99053 9.37904 2.08869 9.27335 2.20445 9.19191C2.40411 9.04721 2.54493 8.83022 2.59948 8.58331C2.63737 8.43799 2.71365 8.30673 2.81966 8.20435C2.92567 8.10198 3.05715 8.03261 3.19911 8.00424C3.48611 7.93547 3.74312 7.76956 3.92997 7.53243C4.01893 7.44076 4.11681 7.35899 4.22204 7.28846C4.43107 7.09974 4.59834 6.86608 4.71231 6.60353C4.7984 6.42742 4.82424 6.22605 4.78562 6.03256C4.7376 5.81892 4.73166 5.59735 4.76815 5.38125C4.80464 5.16515 4.88282 4.95893 4.99794 4.77518C5.07057 4.64166 5.13171 4.50178 5.18066 4.35704C5.30316 3.9625 5.5642 3.63073 5.91152 3.42814L6.05049 3.35975C6.28461 3.24758 6.49047 3.08014 6.65172 2.87075C6.81297 2.66136 6.9252 2.41575 6.97953 2.15334C7.031 1.97104 7.09663 1.78073 7.16225 1.5971C7.22787 1.41346 7.51997 1.2164 7.69626 1.48984C7.77796 1.62163 7.89386 1.72659 8.03051 1.79255C8.16716 1.8585 8.31893 1.88277 8.46827 1.8625C8.77519 1.8376 9.08397 1.86612 9.38188 1.94693C9.51303 1.99671 9.65643 1.99911 9.78901 1.95364C9.9216 1.90816 10.0356 1.81746 10.1127 1.69625C10.1999 1.55146 10.3314 1.44149 10.4859 1.38398C10.7698 1.28983 11.0349 1.14262 11.2682 0.949633C11.5062 0.762479 11.7961 0.660954 12.0943 0.660181C12.3186 0.649355 12.5402 0.604141 12.7518 0.52609C13.033 0.446341 13.3189 0.385469 13.6075 0.343812C13.7646 0.330321 13.9219 0.364756 14.0604 0.442968C14.1362 0.487481 14.2218 0.510873 14.3088 0.510873C14.3958 0.510873 14.4814 0.487481 14.5572 0.442968C14.9129 0.259773 15.3191 0.212373 15.7049 0.30896C16.0118 0.362258 16.3269 0.303044 16.5966 0.141408C16.657 0.102276 16.7208 0.0691036 16.7871 0.042251C16.8745 -0.00112861 16.9736 -0.0114954 17.0675 0.0129622C17.1614 0.0374197 17.2443 0.0951443 17.3018 0.17626C17.4111 0.329067 17.5141 0.404155 17.7045 0.335794C17.8949 0.267433 17.9168 0.46977 17.8435 0.603812C17.7966 0.685307 17.7455 0.764097 17.6904 0.839759C17.5154 1.09846 17.5154 1.12128 17.6904 1.41081C17.7618 1.49006 17.8162 1.58429 17.8497 1.68725C17.8833 1.79022 17.8953 1.89951 17.885 2.00771C17.8746 2.11592 17.8421 2.22057 17.7897 2.31459C17.7372 2.40862 17.6661 2.48985 17.581 2.55283C17.478 2.66677 17.3687 2.75793 17.2734 2.87321C17.244 2.91114 17.2279 2.95842 17.2279 3.00722C17.2279 3.05601 17.244 3.10329 17.2734 3.14123C17.2881 3.17471 17.3139 3.20155 17.3461 3.21682C17.3782 3.23209 17.4145 3.23477 17.4484 3.22435C17.6311 3.1332 17.7405 3.17071 17.8062 3.39992C17.8315 3.46924 17.8706 3.53221 17.9209 3.58465C17.9713 3.63709 18.0317 3.67789 18.0982 3.70426C18.3833 3.91871 18.7373 4.00908 19.0852 3.95624C19.3297 3.93656 19.5736 4.00055 19.78 4.13852C19.9087 4.19214 20.0284 4.2726 20.1532 4.3289C20.247 4.36659 20.3309 4.42689 20.3981 4.50496C20.4652 4.58302 20.5135 4.67656 20.5392 4.77788C20.5791 4.94689 20.6735 5.09655 20.8064 5.20192C20.9394 5.30728 21.103 5.362 21.27 5.35695C21.7096 5.40011 22.1234 5.59276 22.4474 5.90518L22.5285 5.98159C22.5874 6.04838 22.6656 6.09335 22.7513 6.10979C22.8369 6.12623 22.9254 6.11324 23.0033 6.07273C23.1124 6.01832 23.2045 5.933 23.2691 5.82656C23.3337 5.72011 23.3683 5.59687 23.3687 5.47092C23.3687 5.31096 23.3687 5.15096 23.3687 4.991C23.3551 4.86583 23.3714 4.73908 23.4163 4.62211C23.4612 4.50514 23.5333 4.40161 23.6261 4.3208C23.7391 4.19271 23.8764 4.09049 24.0294 4.02055C24.1823 3.9506 24.3476 3.91452 24.5146 3.91452C24.6816 3.91452 24.8468 3.9506 24.9997 4.02055C25.1527 4.09049 25.29 4.19271 25.4031 4.3208C25.613 4.5053 25.8645 4.63123 26.1339 4.68674C26.3422 4.71291 26.5384 4.80294 26.6975 4.94544C26.7815 5.01029 26.8857 5.03997 26.9896 5.02856C27.4054 5.04212 27.8149 5.13767 28.1966 5.31007C28.4539 5.41731 28.7229 5.4856 28.9866 5.57809C29.0436 5.59713 29.1039 5.60298 29.1633 5.59511C29.2226 5.58723 29.2796 5.56582 29.3302 5.53252C29.41 5.48892 29.4858 5.43783 29.5567 5.37978C29.7243 5.24918 29.9164 5.15664 30.1205 5.10816C30.3247 5.05968 30.5363 5.05629 30.7418 5.09826C30.8445 5.09974 30.9443 5.13436 31.0274 5.19742C31.1659 5.30812 31.3265 5.38484 31.4974 5.42175C31.6683 5.45865 31.845 5.45478 32.0143 5.41054C32.3 5.36496 32.336 5.41057 32.439 5.69206C32.4827 5.8261 32.5123 5.96011 32.556 6.08075C32.7902 6.67646 32.7902 7.34422 32.556 7.93994C32.4827 8.1611 32.4029 8.27504 32.1829 8.22947C32.0735 8.22947 32.0079 8.29113 32.0439 8.39702C32.3122 9.33059 32.6954 10.224 33.184 11.055C33.2293 11.1175 33.2619 11.189 33.2796 11.2651C33.2973 11.3412 33.2998 11.4202 33.2869 11.4974C33.2479 11.6385 33.2538 11.7891 33.3039 11.9264C33.3541 12.0637 33.4456 12.1803 33.5649 12.2587C33.8011 12.4514 33.9904 12.6995 34.1174 12.9827C34.2444 13.2659 34.3055 13.5763 34.2957 13.8887C34.291 14.2281 34.3156 14.5673 34.3691 14.9021C34.3809 14.9967 34.4117 15.0876 34.4596 15.1689C34.5075 15.2502 34.5714 15.3201 34.647 15.3739C34.8605 15.5103 35.0411 15.696 35.1749 15.9165C35.3087 16.137 35.3923 16.3865 35.419 16.6459C35.4442 16.9606 35.5318 17.2664 35.6764 17.544C35.7575 17.6579 35.8231 17.6579 35.9183 17.544C36.0135 17.43 35.9183 17.4757 35.9698 17.4448C35.9989 17.4331 36.0309 17.4312 36.0611 17.4393C36.0913 17.4475 36.1184 17.4654 36.1383 17.4904C36.1708 17.5839 36.1708 17.6864 36.1383 17.7799C36.1115 17.8538 36.1132 17.9356 36.1432 18.0082C36.1732 18.0807 36.2292 18.1383 36.2992 18.1686C36.3787 18.2385 36.4649 18.2997 36.5565 18.351C36.7289 18.4505 36.8786 18.5877 36.9953 18.7531C37.2526 19.0734 37.5293 19.3777 37.7995 19.682C37.8729 19.7664 37.9462 19.8495 38.0118 19.9407C38.0671 20.0093 38.1038 20.0921 38.1181 20.1805C38.1323 20.2688 38.1236 20.3596 38.0929 20.4433C38.0588 20.5125 38.0482 20.5917 38.063 20.6679C38.0777 20.7441 38.1168 20.8128 38.174 20.8629C38.2477 20.9503 38.3135 21.0445 38.3708 21.1444C38.4458 21.2926 38.5719 21.4058 38.7238 21.461C38.8756 21.5162 39.0419 21.5094 39.1892 21.4419C39.4534 21.3035 39.7532 21.2566 40.0449 21.3079C40.1479 21.3012 40.247 21.264 40.3305 21.2007C40.4769 21.1029 40.6413 21.038 40.8131 21.0103C41.2377 20.9419 41.6546 20.8428 42.0779 20.7597C42.2328 20.7282 42.3796 20.6633 42.509 20.5693C42.5659 20.5272 42.6308 20.4984 42.6994 20.4849C42.7353 20.4798 42.7718 20.4826 42.8065 20.4932C42.8412 20.5037 42.8734 20.5218 42.901 20.5463C42.9285 20.5707 42.9508 20.6009 42.9664 20.6349C42.982 20.6689 42.9906 20.7059 42.9915 20.7436C42.9915 20.8964 42.9915 21.0559 42.9915 21.2154C42.9915 21.3749 43.0494 21.6953 42.8628 21.8856C42.8274 21.9308 42.8071 21.9868 42.8049 22.0451C42.7285 22.4689 42.5719 22.8726 42.3443 23.2327C42.1178 23.6979 41.9274 24.1925 41.7228 24.6724C41.6931 24.8064 41.6436 24.9349 41.5761 25.0531C41.1746 25.7348 40.7146 26.3772 40.2019 26.9725C40.1116 27.0681 40.0306 27.1727 39.9599 27.2848C39.8372 27.4919 39.658 27.6561 39.4452 27.7566C38.9283 28.0571 38.4714 28.4579 38.0993 28.9375C37.8587 29.1962 37.6682 29.5005 37.4482 29.7834C37.1374 30.2025 36.8027 30.6017 36.4459 30.979C36.328 31.1003 36.2398 31.2492 36.1885 31.4133C36.0565 31.8005 35.8924 32.1749 35.6983 32.5325C35.5618 32.8135 35.4655 33.1139 35.4126 33.4239C35.3885 33.4978 35.3925 33.5785 35.4239 33.6493C35.4553 33.7202 35.5116 33.7758 35.5812 33.8046L35.4924 33.8086ZM30.7688 30.4496C30.7688 30.7016 30.7688 30.7471 31.039 30.7994C31.122 30.8195 31.203 30.8478 31.2809 30.8838C31.3813 30.9143 31.488 30.9143 31.5884 30.8838C31.654 30.8838 31.7415 30.8302 31.7274 30.7498C31.6836 30.4911 31.8445 30.3477 31.9539 30.1788C32.0502 30.0131 32.1193 29.8319 32.1584 29.6426C32.2318 29.2766 32.0298 29.0032 31.712 29.0488C31.544 29.0778 31.378 29.1185 31.2153 29.1708C31.1078 29.1977 31.0118 29.2608 30.942 29.3502C30.8723 29.4395 30.8327 29.5503 30.8293 29.6654L30.7688 30.4496ZM32.1842 38.0657C32.2728 38.4862 32.3924 38.899 32.5419 39.3003H32.5856C32.6019 39.2989 32.6171 39.291 32.6279 39.2783C32.6387 39.2655 32.6443 39.249 32.6436 39.232C32.5281 38.7956 32.5031 38.3387 32.5702 37.8916C32.6425 37.6668 32.6296 37.4217 32.5342 37.2065C32.4903 37.0772 32.4656 36.9416 32.4608 36.8044C32.4482 36.6492 32.4043 36.4985 32.3322 36.3621C32.317 36.3407 32.2977 36.3229 32.2756 36.3097C32.2534 36.2966 32.2289 36.2883 32.2035 36.2857C32.1456 36.2857 32.1379 36.3688 32.1597 36.4198C32.2864 36.833 32.319 37.2713 32.255 37.6999C32.2551 37.8274 32.2452 37.9547 32.2254 38.0805L32.1842 38.0657ZM29.1642 31.9723C29.2453 32.3074 29.0613 32.6277 29.1642 32.9548C29.2197 33.143 29.2542 33.3373 29.2671 33.5338C29.2914 33.6873 29.3307 33.8377 29.3842 33.9829C29.4111 34.0637 29.4545 34.1376 29.5114 34.1994C29.5682 34.2611 29.6372 34.3093 29.7136 34.3407C29.7278 34.3503 29.7443 34.3555 29.7612 34.3555C29.7781 34.3555 29.7947 34.3503 29.8089 34.3407C29.827 34.3198 29.8371 34.2926 29.8371 34.2643C29.8371 34.2361 29.827 34.2089 29.8089 34.188C29.7747 34.1186 29.7314 34.0545 29.6802 33.9976C29.5873 33.9194 29.516 33.8168 29.4737 33.7005C29.4314 33.5841 29.4196 33.4581 29.4396 33.3354C29.4504 33.1767 29.4356 33.0172 29.3958 32.8636C29.3755 32.5619 29.3063 32.266 29.1912 31.9883L29.1642 31.9723ZM19.4081 19.2692C19.4081 19.4675 19.4082 19.6806 19.5986 19.7798C19.789 19.879 19.8842 19.7799 20.0155 19.6458C20.0486 19.6295 20.0751 19.6012 20.09 19.5663C20.1048 19.5314 20.1072 19.492 20.0966 19.4554C20.0876 19.4312 20.0737 19.4092 20.056 19.391C20.0382 19.3727 20.017 19.3586 19.9936 19.3496C19.8258 19.3232 19.6672 19.2526 19.5329 19.1445C19.5111 19.1069 19.4378 19.19 19.4378 19.2785L19.4081 19.2692ZM31.2526 6.99091C31.3993 7.50161 31.3993 7.50165 31.582 7.63837C31.5628 7.39548 31.4556 7.16922 31.2822 7.00564L31.2526 6.99091Z" fill="white"/>
</svg>
