<svg width="39" height="46" viewBox="0 0 39 46" fill="none" xmlns="http://www.w3.org/2000/svg">
    <path d="M38.1814 35.848C37.5067 37.4103 36.6732 38.9 35.6938 40.2939C34.3854 42.1502 33.3109 43.4329 32.4874 44.1469C31.2083 45.3134 29.8341 45.9136 28.365 45.9475C27.3124 45.9475 26.0406 45.6498 24.5593 45.0448C23.073 44.4422 21.7086 44.1469 20.4587 44.1469C19.1504 44.1469 17.747 44.4422 16.2437 45.0448C14.7429 45.6498 13.5295 45.9669 12.6012 45.9959C11.1954 46.0564 9.78959 45.4417 8.38864 44.1469C7.49447 43.3724 6.37615 42.0413 5.03367 40.1584C3.59618 38.1521 2.41451 35.8166 1.48866 33.1616C0.497033 30.2888 0 27.5104 0 24.8192C0 21.7383 0.67002 19.0785 2.0125 16.8519C3.02787 15.1032 4.4795 13.6437 6.22753 12.6141C7.95122 11.5871 9.91893 11.0342 11.9288 11.0119C13.0495 11.0119 14.5187 11.3556 16.3387 12.0332C18.1587 12.7109 19.3282 13.0546 19.8374 13.0546C20.2224 13.0546 21.5161 12.6504 23.7187 11.8493C25.797 11.1063 27.5512 10.7989 28.9887 10.92C32.887 11.2322 35.8131 12.7569 37.7599 15.5062C34.2758 17.6045 32.5532 20.5403 32.5873 24.3085C32.6165 27.2442 33.691 29.6862 35.7961 31.6248C36.7267 32.5094 37.8126 33.2173 39 33.7134C38.7417 34.4564 38.4689 35.1655 38.1814 35.848ZM29.247 0.922097C29.247 3.22129 28.3991 5.37043 26.7155 7.35741C24.6786 9.71953 22.2178 11.0869 19.5499 10.8715C19.5151 10.5824 19.498 10.2915 19.4988 10.0003C19.4988 7.79063 20.4636 5.42851 22.1862 3.49477C23.0438 2.51701 24.1353 1.7014 25.4583 1.05279C26.7788 0.413855 28.0263 0.060505 29.2007 0C29.2323 0.309786 29.247 0.617152 29.247 0.922097Z" fill="black"/>
</svg>
