<svg width="46" height="54" viewBox="0 0 46 54" fill="currentColor" xmlns="http://www.w3.org/2000/svg">
<path d="M38.4584 28.5371C38.432 24.1108 40.4655 20.7749 44.572 18.3152C42.2752 15.0701 38.8006 13.2853 34.2203 12.9413C29.8835 12.6038 25.1388 15.4335 23.4014 15.4335C21.5654 15.4335 17.3668 13.0581 14.0632 13.0581C7.24549 13.162 0 18.419 0 29.1147C0 32.2754 0.585694 35.54 1.75708 38.9019C3.32332 43.3281 8.96967 54.1731 14.8595 53.9979C17.9393 53.9265 20.1176 51.8432 24.1253 51.8432C28.0146 51.8432 30.0283 53.9979 33.4635 53.9979C39.406 53.9135 44.5127 44.055 46 39.6158C38.0306 35.9099 38.4584 28.7643 38.4584 28.5371ZM31.5419 8.74221C34.8784 4.83515 34.5757 1.27856 34.477 0C31.5288 0.168743 28.1199 1.97949 26.1785 4.20561C24.0398 6.59397 22.7828 9.54698 23.0526 12.8764C26.2378 13.1166 29.1465 11.5005 31.5419 8.74221Z" fill="white"/>
</svg>
