<svg width="13" height="8" viewBox="0 0 13 8" fill="none" xmlns="http://www.w3.org/2000/svg">
    <path d="M6.24861 7.12461C6.13366 7.12479 6.0198 7.10227 5.91358 7.05834C5.80736 7.01441 5.71085 6.94993 5.62961 6.86861L0.25461 1.49361C0.0908387 1.32878 -0.000745573 1.10564 4.57211e-06 0.87328C0.000754718 0.640923 0.0937778 0.418384 0.25861 0.254613C0.423442 0.0908415 0.646581 -0.000745574 0.878938 4.57197e-06C1.1113 0.000754718 1.33384 0.0937785 1.49761 0.258611L6.25361 5.01461L11.0036 0.258611C11.1678 0.0944415 11.3904 0.00220946 11.6226 0.00220947C11.8548 0.00220947 12.0774 0.0944415 12.2416 0.258611C12.4058 0.42278 12.498 0.645436 12.498 0.877606C12.498 1.10978 12.4058 1.33244 12.2416 1.49661L6.86761 6.86861C6.78637 6.94993 6.68986 7.01441 6.58364 7.05834C6.47742 7.10227 6.36356 7.12479 6.24861 7.12461Z" fill="#5FE90A"/>
</svg>
