<svg width="94" height="63" viewBox="0 0 94 63" fill="#fff" xmlns="http://www.w3.org/2000/svg">
    <path fill-rule="evenodd" clip-rule="evenodd" d="M21.0413 6.06721C20.9213 5.06721 20.9313 4.95722 21.4313 4.26722C21.6529 3.95972 21.8312 3.62325 21.9613 3.26722C22.0968 2.96115 22.3142 2.69836 22.5894 2.50782C22.8646 2.31728 23.1871 2.20635 23.5213 2.18721C23.7343 2.17216 23.9482 2.17216 24.1613 2.18721C24.3822 2.18652 24.5967 2.11265 24.7713 1.97718C24.817 1.94166 24.8539 1.89618 24.8794 1.84419C24.9048 1.7922 24.9181 1.73508 24.9181 1.6772C24.9181 1.61932 24.9048 1.5622 24.8794 1.5102C24.8539 1.45821 24.817 1.41273 24.7713 1.37721C24.6013 1.23721 24.4113 1.1372 24.2413 0.997204C24.2264 0.962433 24.2188 0.925029 24.2188 0.887218C24.2188 0.849408 24.2264 0.812003 24.2413 0.777233C24.2681 0.711843 24.3179 0.658477 24.3813 0.627209C24.5597 0.602842 24.7413 0.617023 24.9138 0.668773C25.0863 0.720524 25.2457 0.808629 25.3813 0.927196C26.1122 1.32293 26.8972 1.60934 27.7113 1.77723C28.0848 1.92204 28.4949 1.94307 28.8813 1.83723C28.9829 1.79194 29.0961 1.77913 29.2053 1.80061C29.3145 1.82209 29.4144 1.87681 29.4913 1.95723C29.6713 2.14723 29.7913 2.03723 29.9513 1.95723C30.0511 1.92868 30.1565 1.9256 30.2578 1.94831C30.3592 1.97103 30.4532 2.0188 30.5313 2.08723C30.618 2.1685 30.6772 2.27482 30.7005 2.39137C30.7238 2.50792 30.7101 2.62882 30.6613 2.73719C30.5795 3.15633 30.3658 3.53833 30.0513 3.82722C29.9515 3.88813 29.867 3.97122 29.8046 4.07008C29.7422 4.16894 29.7034 4.28093 29.6913 4.39723C29.641 4.86833 29.5231 5.32973 29.3413 5.76722C29.3003 5.8792 29.2937 6.00082 29.3222 6.11659C29.3507 6.23236 29.413 6.337 29.5012 6.41719C29.7933 6.65441 30.0552 6.92642 30.2813 7.22718C30.364 7.35209 30.4878 7.44409 30.6313 7.48719C31.2678 7.6776 31.848 8.02092 32.3213 8.48719C32.4295 8.58579 32.5549 8.66379 32.6913 8.71724C33.2658 8.88241 33.769 9.23426 34.1213 9.71724C34.2397 9.86694 34.3923 9.98596 34.5664 10.0643C34.7404 10.1426 34.9308 10.1779 35.1213 10.1672C35.3261 10.1826 35.53 10.1276 35.6991 10.0112C35.8683 9.89477 35.9926 9.724 36.0513 9.52723C36.4028 8.55103 36.6737 7.54767 36.8613 6.52723C36.9111 6.25617 36.9111 5.97829 36.8613 5.70723C36.7314 5.08055 36.7314 4.43388 36.8613 3.8072C36.8809 3.688 36.8809 3.56641 36.8613 3.44722C36.7213 2.23722 37.3913 1.33723 37.8613 0.337231C37.8952 0.267961 37.939 0.203963 37.9913 0.147228C38.0315 0.0867721 38.0905 0.0412753 38.1592 0.0177725C38.2279 -0.00573032 38.3025 -0.00593189 38.3713 0.0172232C38.4613 0.0172232 38.5813 0.177213 38.5813 0.257213C38.741 1.22813 39.0302 2.17322 39.4413 3.06721C39.5813 3.51721 39.6613 3.99723 39.7613 4.45723C39.8613 4.91723 39.9313 5.05723 40.4713 5.14723C40.8215 5.21411 41.1437 5.38405 41.3967 5.63527C41.6497 5.88648 41.8219 6.20748 41.8913 6.5572C41.9713 6.9472 42.0313 7.34719 42.0913 7.73719C42.1322 8.16838 42.2762 8.58341 42.5113 8.94722C42.8128 9.41209 42.9758 9.95315 42.9813 10.5072C42.9704 10.9906 43.1033 11.4664 43.3633 11.8741C43.6232 12.2818 43.9984 12.6031 44.4413 12.7972C45.0582 13.1229 45.644 13.5045 46.1913 13.9372C46.3256 14.012 46.4286 14.1327 46.4813 14.2772C46.7313 15.2272 47.4813 15.9172 47.5413 16.9872C47.5352 17.0349 47.5419 17.0835 47.5608 17.1278C47.5797 17.172 47.6101 17.2104 47.6489 17.239C47.6877 17.2675 47.7334 17.2852 47.7813 17.2902C47.8292 17.2951 47.8775 17.2872 47.9213 17.2672C48.2013 17.1772 48.4013 17.3572 48.6413 17.4372C48.772 17.4697 48.8886 17.5439 48.9734 17.6486C49.0582 17.7532 49.1066 17.8826 49.1113 18.0172C49.1144 18.4615 49.2308 18.8976 49.4496 19.2844C49.6683 19.6711 49.9821 19.9956 50.3613 20.2272C50.7761 20.622 51.142 21.0652 51.4513 21.5472C51.6213 21.7572 51.7812 21.7472 52.0013 21.5472C52.0306 21.5108 52.0712 21.4853 52.1167 21.4746C52.1622 21.4639 52.21 21.4687 52.2525 21.4882C52.2949 21.5077 52.3297 21.5408 52.3512 21.5823C52.3727 21.6238 52.3798 21.6713 52.3713 21.7172C52.3866 21.9136 52.3866 22.1108 52.3713 22.3072C52.2514 23.0576 52.2211 23.8197 52.2813 24.5772C52.2675 24.7331 52.288 24.8901 52.3413 25.0372C52.9813 25.7972 52.5513 26.7772 52.8112 27.6172C52.8454 27.8124 52.8246 28.0132 52.7513 28.1972C52.4913 29.0372 52.5313 29.9472 52.2013 30.7572C52.1524 30.8671 52.1318 30.9873 52.1413 31.1072C52.1491 32.1006 51.8901 33.078 51.3913 33.9372C51.2821 34.1788 51.1217 34.3937 50.9213 34.5672C50.4895 35.0138 50.1677 35.5547 49.9813 36.1472C49.8113 36.5972 49.6513 37.0372 49.5113 37.4872C49.3422 38.1715 49.0762 38.8282 48.7213 39.4372C48.5414 39.7411 48.4384 40.0844 48.4213 40.4372C48.3513 41.1072 48.2513 41.7772 48.1913 42.4372C48.1933 42.6561 48.127 42.8701 48.0015 43.0494C47.876 43.2287 47.6976 43.3643 47.4913 43.4372C47.195 43.5774 46.8687 43.6427 46.5413 43.6272C46.2495 43.6111 45.9576 43.6592 45.6864 43.768C45.4151 43.8769 45.171 44.0439 44.9713 44.2572C44.5213 44.6572 44.0813 45.0672 43.6713 45.4972C43.4713 45.6972 43.3113 45.7472 43.1013 45.5972C42.8115 45.4306 42.5457 45.2254 42.3112 44.9872C42.0712 44.6572 41.7713 44.6672 41.4613 44.5672C41.2739 44.4935 41.0679 44.4819 40.8734 44.5341C40.679 44.5863 40.5065 44.6996 40.3813 44.8572C40.2907 44.9855 40.173 45.0923 40.0366 45.1699C39.9001 45.2476 39.7483 45.2943 39.5918 45.3067C39.4352 45.3191 39.2779 45.2969 39.131 45.2417C38.984 45.1865 38.8509 45.0996 38.7413 44.9872C38.4171 44.7491 38.0393 44.5946 37.6413 44.5372C37.1108 44.4121 36.5972 44.2242 36.1113 43.9772C35.6646 43.7919 35.2843 43.4761 35.0202 43.0711C34.7561 42.666 34.6206 42.1907 34.6313 41.7072C34.6013 41.1948 34.4652 40.6941 34.2313 40.2372C33.9713 39.6972 33.6813 39.3472 33.0513 39.5672C32.8113 39.6472 32.6613 39.4172 32.7313 39.1172C32.9122 38.6722 32.9403 38.1799 32.8112 37.7172C32.7548 37.631 32.6699 37.5672 32.5713 37.5372C32.5349 37.5407 32.5002 37.5536 32.4704 37.5747C32.4406 37.5957 32.4167 37.6242 32.4013 37.6572C32.3313 37.8372 32.2913 38.0372 32.2213 38.2172C32.1666 38.4307 32.0331 38.6155 31.8474 38.7343C31.6618 38.8531 31.438 38.897 31.2213 38.8572C31.1843 38.846 31.15 38.8274 31.1206 38.8023C31.0911 38.7773 31.0672 38.7464 31.0503 38.7116C31.0334 38.6769 31.0239 38.639 31.0223 38.6004C31.0208 38.5617 31.0272 38.5232 31.0413 38.4872C31.1164 38.3593 31.2035 38.2387 31.3013 38.1272C31.4716 37.9626 31.5779 37.7429 31.6013 37.5072C31.635 36.8759 31.8202 36.2619 32.1413 35.7172C32.1937 35.5699 32.2108 35.4123 32.1913 35.2572C32.1873 35.2391 32.1788 35.2222 32.1666 35.2082C32.1544 35.1942 32.1388 35.1835 32.1213 35.1772C32.1056 35.17 32.0885 35.1663 32.0713 35.1663C32.054 35.1663 32.037 35.17 32.0213 35.1772C31.6413 36.0872 30.7812 36.4672 30.2512 37.1772C30.1193 37.3644 30.0023 37.5617 29.9013 37.7672C29.8013 37.9672 29.8413 38.2872 29.5513 38.3072C29.3456 38.2794 29.155 38.1836 29.01 38.035C28.8651 37.8864 28.7739 37.6936 28.7512 37.4872C28.7693 37.1717 28.7252 36.8557 28.6213 36.5572C28.4655 36.116 28.2165 35.7136 27.8913 35.3772C27.6057 35.178 27.4002 34.8838 27.3112 34.5472C27.2697 34.4012 27.1974 34.2659 27.099 34.1503C27.0007 34.0347 26.8787 33.9416 26.7413 33.8772C26.5513 33.7672 26.3513 33.6872 26.1513 33.5872C25.4213 33.1972 24.5613 33.1772 23.9013 32.5872C23.7794 32.5052 23.6409 32.451 23.4958 32.4285C23.3506 32.4061 23.2022 32.4159 23.0612 32.4572C22.3812 32.5272 21.7012 32.5772 21.0612 32.6772C20.7749 32.7141 20.4993 32.8095 20.2512 32.9572C19.4682 33.421 18.5711 33.6565 17.6613 33.6372C17.1527 33.6146 16.6506 33.7585 16.2313 34.0472C15.9533 34.2222 15.6624 34.3759 15.3613 34.5072C15.0643 34.6211 14.7928 34.7929 14.5628 35.0126C14.3327 35.2324 14.1486 35.4957 14.0213 35.7872C13.9535 35.996 13.8188 36.1768 13.6381 36.3015C13.4574 36.4262 13.2406 36.4879 13.0213 36.4772H9.47128C9.28693 36.4671 9.10302 36.5041 8.93686 36.5845C8.77069 36.665 8.6277 36.7864 8.52127 36.9372C8.40629 37.1292 8.23024 37.2771 8.02127 37.3572C7.59603 37.498 7.21625 37.7501 6.92129 38.0872C6.76411 38.2659 6.5595 38.3964 6.33121 38.4637C6.10291 38.5309 5.86022 38.5322 5.63125 38.4672C5.35125 38.4072 5.06128 38.3872 4.78128 38.3472C3.91415 38.1136 3.15668 37.5827 2.64126 36.8472C2.52935 36.7046 2.46853 36.5285 2.46853 36.3472C2.46853 36.1659 2.52935 35.9899 2.64126 35.8472C2.89126 35.5072 3.21125 35.2172 3.19125 34.7272C3.33398 33.864 3.28625 32.98 3.0513 32.1372C2.9013 31.8172 2.80127 31.4672 2.65127 31.1372C2.32951 30.5201 2.16468 29.8332 2.17129 29.1372C2.1586 28.7414 2.05237 28.3541 1.8613 28.0072C1.49465 27.2656 1.21607 26.4836 1.03128 25.6772C0.970812 25.3284 0.815062 25.003 0.581267 24.7372C0.456691 24.59 0.33989 24.4365 0.231291 24.2772C-0.00870882 23.9372 -0.138709 23.5972 0.231291 23.2772C0.293356 23.1839 0.334303 23.0781 0.351286 22.9672C0.631286 22.8872 0.681264 23.2572 0.891264 23.2772C1.10126 23.2972 1.0513 23.2172 1.0513 23.1772C1.05169 23.0644 1.03135 22.9526 0.991301 22.8472C0.761301 22.2972 0.541299 21.7572 0.301298 21.2172C0.175661 20.9693 0.110197 20.6952 0.110197 20.4172C0.110197 20.1392 0.175661 19.8652 0.301298 19.6172C0.492983 19.223 0.572531 18.7837 0.531279 18.3472C0.493925 17.9908 0.527895 17.6304 0.631255 17.2872C0.731255 16.9972 0.841291 16.6272 1.23129 16.9572C1.34129 17.0472 1.44127 16.9572 1.52127 16.8772C2.24127 16.2172 3.1113 15.8172 3.8013 15.1172C3.90977 14.9909 4.045 14.8903 4.19723 14.8228C4.34946 14.7554 4.51486 14.7227 4.6813 14.7272C5.54961 14.6883 6.39766 14.4523 7.16128 14.0372C7.5287 13.8951 7.90648 13.7815 8.29129 13.6972C8.74631 13.5895 9.19387 13.4525 9.63125 13.2872C10.0146 13.1303 10.342 12.8621 10.5713 12.5172C10.9113 12.0472 11.2113 11.5172 11.5713 11.0772C11.711 10.8352 11.7505 10.548 11.6813 10.2772C11.6361 10.026 11.6575 9.7672 11.7434 9.52681C11.8294 9.28642 11.977 9.07282 12.1713 8.90724C12.5513 8.51724 12.7013 8.52721 13.0113 9.00721C13.0713 9.10721 13.1213 9.2172 13.1813 9.3072C13.1946 9.33202 13.213 9.35377 13.2353 9.37098C13.2575 9.3882 13.2833 9.40051 13.3106 9.40712C13.338 9.41372 13.3664 9.41447 13.3941 9.40931C13.4218 9.40416 13.4481 9.39322 13.4713 9.37721C13.5256 9.32327 13.5607 9.253 13.5713 9.1772C13.5551 8.97924 13.5285 8.78233 13.4913 8.58723C13.4913 8.17723 13.5713 7.9272 13.9513 7.9972H14.1613C14.2178 8.00566 14.2755 8.00276 14.3309 7.98866C14.3863 7.97456 14.4383 7.94956 14.484 7.91511C14.5296 7.88066 14.5679 7.83741 14.5966 7.78798C14.6253 7.73854 14.6439 7.68391 14.6513 7.62721C14.8274 6.98746 15.1729 6.40709 15.6513 5.94722C16.2164 5.22878 17.0044 4.71867 17.8913 4.4972C18.094 4.46257 18.3023 4.48652 18.4918 4.56623C18.6814 4.64595 18.8443 4.77813 18.9613 4.94722L19.3713 5.4972C19.4434 5.62829 19.5539 5.73407 19.688 5.80024C19.8222 5.86642 19.9734 5.88979 20.1213 5.8672C20.4367 5.88403 20.7474 5.95157 21.0413 6.06721Z" fill="white"/>
    <path fill-rule="evenodd" clip-rule="evenodd" d="M77.9514 55.0673C77.6514 55.3073 77.2714 55.2072 76.9514 55.3572C76.6847 55.4547 76.4503 55.624 76.2738 55.8463C76.0973 56.0687 75.9857 56.3355 75.9514 56.6173C75.8714 57.2573 75.5814 57.8173 75.4514 58.4373C75.2964 58.9651 75.0257 59.4517 74.6589 59.8616C74.2922 60.2716 73.8387 60.5946 73.3314 60.8073C73.234 60.8593 73.1273 60.8914 73.0174 60.9017C72.9075 60.912 72.7967 60.9003 72.6914 60.8673C72.301 60.7937 71.9258 60.6551 71.5814 60.4573C71.2292 60.1964 70.8089 60.0435 70.3714 60.0173C70.2269 60.0042 70.087 59.9598 69.9614 59.8873C69.8206 59.8179 69.7107 59.6984 69.6534 59.5523C69.5961 59.4062 69.5953 59.2439 69.6514 59.0973C69.8559 58.225 70.2911 57.4238 70.9114 56.7773L70.9814 56.6973C71.1521 56.3026 71.4056 55.9492 71.7247 55.6611C72.0439 55.3729 72.4213 55.1568 72.8314 55.0273C73.6114 54.3273 74.4114 53.6473 75.1714 52.9273C75.4389 52.6546 75.6138 52.3048 75.6714 51.9273C75.7273 51.5003 75.9328 51.107 76.2514 50.8173C76.519 50.5857 76.6961 50.2668 76.7514 49.9172C76.7928 49.7263 76.8497 49.539 76.9214 49.3572C77.1814 48.7372 77.4514 48.6773 77.9214 49.1373C77.9997 49.2169 78.07 49.304 78.1314 49.3973C78.3314 49.7573 78.5614 49.7873 78.8514 49.5573C78.9426 49.5 79.0448 49.4625 79.1514 49.4473C79.2171 49.4404 79.2836 49.4465 79.3469 49.4655C79.4102 49.4844 79.4691 49.5157 79.5202 49.5576C79.5714 49.5994 79.6138 49.651 79.6448 49.7093C79.6759 49.7676 79.6951 49.8315 79.7014 49.8973C79.8444 50.6394 79.6899 51.408 79.2714 52.0372C78.9214 52.4872 78.6514 53.0373 78.2714 53.4573C78.0907 53.6388 77.9706 53.8717 77.9276 54.1242C77.8847 54.3766 77.9209 54.6362 78.0314 54.8673C77.9912 54.9277 77.9639 54.9958 77.9514 55.0673Z" fill="white"/>
    <path fill-rule="evenodd" clip-rule="evenodd" d="M77.8412 37.6475C78.219 37.9738 78.6354 38.2525 79.0812 38.4774C79.3404 38.6206 79.5646 38.8196 79.7375 39.06C79.9104 39.3004 80.0278 39.5762 80.0812 39.8674C80.2012 40.2774 80.2812 40.7175 80.3812 41.1375C80.4189 41.3269 80.4864 41.5091 80.5812 41.6774C80.6912 41.8274 80.8612 41.9774 81.0412 41.9174C81.2212 41.8574 81.1112 41.6474 81.1412 41.5074C81.1712 41.3674 81.2212 41.3674 81.2712 41.3574C81.3089 41.3582 81.346 41.3666 81.3804 41.382C81.4147 41.3975 81.4456 41.4198 81.4712 41.4474C81.6101 41.6361 81.687 41.8632 81.6912 42.0975C81.7316 42.4576 81.8881 42.7948 82.1371 43.0582C82.386 43.3215 82.7139 43.4968 83.0712 43.5574C83.1748 43.5932 83.2851 43.6054 83.394 43.5933C83.503 43.5812 83.6079 43.545 83.7012 43.4874C83.8912 43.3774 84.0712 43.2375 84.2612 43.1475C84.7312 42.9275 85.0612 43.1474 85.0912 43.6974C85.1588 44.2129 85.0457 44.7359 84.7712 45.1774C84.6674 45.3424 84.5867 45.5207 84.5312 45.7075C84.5103 45.7937 84.4599 45.8699 84.3886 45.9229C84.3174 45.9759 84.2298 46.0023 84.1412 45.9974C83.4412 46.0674 83.3312 46.1875 83.2912 46.9075C83.2757 47.2509 83.2013 47.5892 83.0712 47.9075C82.7204 48.7251 82.2667 49.4946 81.7212 50.1974C81.6262 50.2966 81.5085 50.3713 81.3783 50.4151C81.2481 50.4589 81.1092 50.4705 80.9736 50.4489C80.8379 50.4272 80.7095 50.3731 80.5994 50.291C80.4892 50.2089 80.4007 50.1012 80.3412 49.9774C80.3015 49.8676 80.3015 49.7473 80.3412 49.6375C80.4012 49.4575 80.5012 49.2874 80.5812 49.1074C80.9412 48.2474 80.8612 47.9075 80.1712 47.4075C79.9112 47.2075 79.6312 47.0274 79.3812 46.7974C79.3061 46.7375 79.2456 46.6614 79.2039 46.5749C79.1623 46.4883 79.1407 46.3935 79.1407 46.2974C79.1407 46.2014 79.1623 46.1066 79.2039 46.02C79.2456 45.9335 79.3061 45.8574 79.3812 45.7974C80.1312 45.2774 80.1312 44.3874 80.3812 43.6174C80.4495 43.2745 80.389 42.9185 80.2112 42.6174C79.9107 41.903 79.5528 41.2141 79.1412 40.5574C78.5938 39.7921 78.1563 38.954 77.8412 38.0674C77.7941 38.0076 77.7686 37.9336 77.7686 37.8574C77.7686 37.7813 77.7941 37.7074 77.8412 37.6475Z" fill="white"/>
    <path fill-rule="evenodd" clip-rule="evenodd" d="M45.9712 50.807C45.9739 51.2566 45.8868 51.7022 45.7151 52.1177C45.5433 52.5333 45.2905 52.9103 44.9712 53.2269C44.7212 53.5169 44.4612 53.7969 44.2412 54.1069C44.0212 54.4169 43.9912 54.6169 43.6912 54.6069C43.4968 54.6157 43.3033 54.5754 43.1286 54.4898C42.9538 54.4042 42.8034 54.276 42.6912 54.117C42.234 53.4756 41.8954 52.7576 41.6912 51.997C41.5712 51.457 41.4012 50.937 41.2612 50.397C41.2026 50.2074 41.1591 50.0134 41.1312 49.817C41.0712 49.117 41.3912 48.8169 41.9712 49.0469C42.1124 49.0891 42.2446 49.1569 42.3612 49.247C42.6241 49.4705 42.9493 49.6077 43.2928 49.6399C43.6363 49.6721 43.9814 49.5977 44.2812 49.4269C44.5212 49.3369 44.7512 49.207 44.9812 49.127C45.0683 49.0904 45.1627 49.0749 45.2569 49.0817C45.3511 49.0886 45.4423 49.1175 45.5232 49.1662C45.604 49.2149 45.6723 49.2821 45.7224 49.3621C45.7724 49.4422 45.8028 49.5329 45.8112 49.627C45.8857 50.0171 45.9391 50.411 45.9712 50.807Z" fill="white"/>
    <path fill-rule="evenodd" clip-rule="evenodd" d="M66.4314 14.187C66.5337 14.1925 66.6348 14.2127 66.7314 14.247C67.167 14.4602 67.5444 14.7759 67.8313 15.167C68.1521 15.6755 68.5958 16.0951 69.1214 16.387C69.1853 16.4246 69.2456 16.4681 69.3014 16.517C69.7714 16.887 70.0113 17.307 69.8213 17.417C69.4813 17.597 69.2114 17.347 68.9314 17.187C67.9353 16.655 67.0919 15.877 66.4814 14.927C66.3619 14.7726 66.2984 14.5822 66.3014 14.387C66.3114 14.317 66.3814 14.267 66.4314 14.187Z" fill="white"/>
    <path fill-rule="evenodd" clip-rule="evenodd" d="M84.3412 11.167C84.1724 11.1451 84.0053 11.1117 83.8412 11.067C83.7516 11.0377 83.6722 10.9836 83.612 10.9111C83.5519 10.8385 83.5134 10.7505 83.5011 10.657C83.486 10.5614 83.4955 10.4634 83.5288 10.3724C83.562 10.2814 83.6179 10.2004 83.6911 10.137C83.8107 10.0283 83.9515 9.94543 84.1047 9.8938C84.2579 9.84217 84.4201 9.82285 84.5811 9.83704C84.7647 9.87558 84.9276 9.98064 85.0384 10.132C85.1491 10.2834 85.2 10.4704 85.1812 10.657C85.1836 10.7333 85.1641 10.8086 85.1252 10.8741C85.0862 10.9397 85.0293 10.9928 84.9611 11.027C84.7582 11.0888 84.551 11.1355 84.3412 11.167Z" fill="white"/>
    <path fill-rule="evenodd" clip-rule="evenodd" d="M85.5012 9.21735C85.404 9.13814 85.3167 9.04746 85.2412 8.94733C85.2053 8.87813 85.1978 8.79768 85.2202 8.72302C85.2426 8.64836 85.2932 8.58532 85.3612 8.5473C85.6782 8.30618 86.0487 8.145 86.4412 8.07733C86.4844 8.06029 86.5308 8.05313 86.5772 8.05646C86.6235 8.05978 86.6685 8.07346 86.7088 8.0965C86.7491 8.11954 86.7837 8.15136 86.8101 8.18958C86.8365 8.22779 86.854 8.27145 86.8612 8.31732C86.8612 8.51732 86.8612 8.75733 86.7012 8.82733C86.3112 8.99733 85.8912 9.06735 85.5012 9.21735Z" fill="white"/>
    <path fill-rule="evenodd" clip-rule="evenodd" d="M31.1412 40.3672C30.9779 40.3524 30.8168 40.3189 30.6612 40.2672C30.6145 40.2378 30.575 40.1982 30.5456 40.1515C30.5162 40.1048 30.4976 40.0521 30.4912 39.9972C30.502 39.8899 30.5518 39.7903 30.6312 39.7173C30.7217 39.6317 30.8287 39.5655 30.9456 39.5225C31.0624 39.4795 31.1868 39.4607 31.3112 39.4673C31.4735 39.4502 31.6371 39.4833 31.7801 39.5619C31.9231 39.6406 32.0387 39.7611 32.1112 39.9073C32.2012 40.1173 31.8412 40.3472 31.3812 40.3672H31.1412Z" fill="white"/>
    <path fill-rule="evenodd" clip-rule="evenodd" d="M71.6411 61.4273C71.6411 61.8073 71.3611 62.1873 71.0611 62.1173C71.0009 62.0849 70.9547 62.0315 70.9311 61.9673C70.9088 61.8345 70.9199 61.6981 70.9636 61.5706C71.0073 61.4432 71.082 61.3286 71.1811 61.2373C71.1989 61.2179 71.2206 61.2024 71.2447 61.1918C71.2688 61.1812 71.2948 61.1758 71.3211 61.1758C71.3474 61.1758 71.3735 61.1812 71.3976 61.1918C71.4217 61.2024 71.4433 61.2179 71.4611 61.2373C71.5278 61.2939 71.5881 61.3577 71.6411 61.4273Z" fill="white"/>
    <path fill-rule="evenodd" clip-rule="evenodd" d="M45.4412 47.2471C45.625 47.3473 45.77 47.506 45.8533 47.6981C45.9367 47.8901 45.9535 48.1044 45.9012 48.3071C45.9012 48.3071 45.7613 48.4071 45.7313 48.3771C45.5886 48.2521 45.474 48.0984 45.3947 47.9261C45.3155 47.7538 45.2734 47.5667 45.2712 47.3771C45.2712 47.3771 45.3812 47.2871 45.4412 47.2471Z" fill="white"/>
    <path fill-rule="evenodd" clip-rule="evenodd" d="M71.6213 6.34717C71.66 6.35142 71.6969 6.36558 71.7285 6.38837C71.76 6.41115 71.7851 6.44173 71.8013 6.47711C71.8266 6.58903 71.8266 6.70522 71.8013 6.81714C71.7593 6.96141 71.6915 7.09694 71.6013 7.21716C71.508 7.18405 71.4203 7.13682 71.3413 7.07715C71.3049 7.04433 71.2758 7.0042 71.2559 6.95941C71.2359 6.91462 71.2256 6.86616 71.2256 6.81714C71.2256 6.76812 71.2359 6.71966 71.2559 6.67487C71.2758 6.63008 71.3049 6.58995 71.3413 6.55713C71.4513 6.47713 71.5413 6.41717 71.6213 6.34717Z" fill="white"/>
    <path fill-rule="evenodd" clip-rule="evenodd" d="M92.0412 55.1974C92.0521 55.2724 92.0359 55.3487 91.9956 55.4129C91.9553 55.477 91.8935 55.5247 91.8212 55.5474C91.6512 55.5974 91.5012 55.3574 91.5112 55.0574C91.5212 54.7574 91.6112 54.7674 91.7712 54.7874C91.9312 54.8074 92.0312 54.9874 92.0412 55.1974Z" fill="white"/>
    <path fill-rule="evenodd" clip-rule="evenodd" d="M70.9412 8.2473C70.9412 8.2473 70.8612 8.37732 70.8012 8.38732C70.7372 8.37963 70.6756 8.35849 70.6203 8.3253C70.5651 8.29212 70.5175 8.24763 70.4807 8.19475C70.4438 8.14187 70.4186 8.08181 70.4066 8.01848C70.3947 7.95516 70.3962 7.89 70.4112 7.82732C70.4252 7.79405 70.4489 7.76576 70.4793 7.74614C70.5096 7.72652 70.5451 7.7165 70.5812 7.71733C70.6918 7.7528 70.7873 7.82422 70.8525 7.92027C70.9177 8.01633 70.949 8.13145 70.9412 8.2473Z" fill="white"/>
    <path fill-rule="evenodd" clip-rule="evenodd" d="M40.3212 47.2472C40.3212 47.3172 40.3212 47.5072 40.1512 47.5272C39.9812 47.5472 39.9412 47.3572 39.9412 47.2072C39.9412 47.0572 39.9412 46.8672 40.1712 46.8972C40.4012 46.9272 40.3112 47.0672 40.3212 47.2472Z" fill="white"/>
    <path fill-rule="evenodd" clip-rule="evenodd" d="M93.7013 15.757C93.7013 15.817 93.6513 15.907 93.6113 15.917C93.5436 15.9437 93.4681 15.943 93.4009 15.915C93.3337 15.887 93.28 15.8339 93.2513 15.767C93.2376 15.7433 93.2301 15.7165 93.2298 15.6891C93.2294 15.6617 93.2361 15.6347 93.2491 15.6106C93.2621 15.5865 93.2811 15.5661 93.3043 15.5515C93.3274 15.5369 93.3539 15.5285 93.3813 15.527C93.453 15.5223 93.5242 15.5426 93.5826 15.5846C93.641 15.6265 93.6829 15.6875 93.7013 15.757Z" fill="white"/>
    <path fill-rule="evenodd" clip-rule="evenodd" d="M34.1813 8.83698C34.1313 8.83698 34.0513 8.73696 34.0513 8.68696C34.0435 8.65069 34.0442 8.61311 34.0533 8.57716C34.0625 8.5412 34.0799 8.50784 34.1041 8.47974C34.1284 8.45164 34.1587 8.42953 34.1929 8.41517C34.2271 8.4008 34.2642 8.3946 34.3013 8.39698C34.4313 8.39698 34.5312 8.46694 34.5012 8.60694C34.4832 8.67663 34.4413 8.73784 34.3829 8.77985C34.3244 8.82187 34.2531 8.84209 34.1813 8.83698Z" fill="white"/>
    <path fill-rule="evenodd" clip-rule="evenodd" d="M84.9712 12.167C84.9712 12.167 85.0712 12.277 85.0612 12.317C85.0552 12.3502 85.0416 12.3815 85.0216 12.4086C85.0016 12.4357 84.9756 12.4579 84.9456 12.4734C84.9157 12.4889 84.8825 12.4972 84.8488 12.4979C84.8151 12.4985 84.7817 12.4913 84.7512 12.477C84.7441 12.4648 84.7405 12.4511 84.7405 12.437C84.7405 12.423 84.7441 12.4092 84.7512 12.397C84.7498 12.3673 84.7545 12.3376 84.765 12.3098C84.7754 12.2819 84.7914 12.2564 84.812 12.2349C84.8325 12.2134 84.8573 12.1964 84.8846 12.1847C84.912 12.173 84.9414 12.167 84.9712 12.167Z" fill="white"/>
</svg>

