<svg width="24" height="15" viewBox="0 0 24 15" fill="none" xmlns="http://www.w3.org/2000/svg">
    <path opacity="0.999" d="M23.2399 3.47615C23.4385 3.00336 23.3395 2.5703 23.1402 2.59018C22.9085 2.64141 22.6821 2.71389 22.4639 2.80669C22.4639 2.80669 20.8145 1.90089 19.9769 1.5857C19.1393 1.27052 19.0218 1.6645 17.092 0.896401C15.1622 0.128306 14.2664 0.50242 14.2664 0.50242C13.7888 0.640138 13.2919 0.955321 11.5012 0.443494C10.1327 0.0507908 8.7017 -0.0828691 7.28314 0.0495134C5.99231 0.108434 3.96065 1.40823 3.96065 1.40823L4.11989 1.46716C3.50316 1.68367 3.38336 2.23525 2.98607 2.58948C2.79562 2.74254 2.62808 2.92158 2.48841 3.1212L2.9065 3.00335L2.34931 3.53503H2.58811C1.7921 4.06673 1.35459 5.76052 1.35459 5.76052L1.08646 6.2234L1.27502 6.09558L0.927222 6.73449L1.08646 6.61595C0.886974 7.26925 0.742977 7.93791 0.656111 8.61497L0.457483 8.95929L0.626785 8.80167L0.367842 9.34331L0.636765 9.1268L0.457483 9.59959L0.726405 9.37312L0.367842 10.1114L0.735772 9.70748L0.357863 10.4756L0.616718 10.269L0.238809 10.9682L0.497664 10.712L0.238809 11.2337L0.447503 11.1549L0.198628 12.2198L0.362152 12.0948C0.143254 12.7727 0.0213501 13.4776 0 14.189C0.139122 14.5439 0.616729 15.0749 1.09434 14.9571C1.57194 14.8392 4.3773 15.1736 3.9793 14.7008C3.9793 14.7008 4.55302 14.8584 4.39669 14.5035C4.39669 14.5035 4.8944 14.8385 4.7352 14.3657C4.7352 14.3657 5.03347 14.1883 4.83482 13.9526C4.38314 13.7164 3.86146 13.6465 3.36258 13.7553L3.28301 12.9481C3.25289 12.6918 3.3547 12.7607 3.42211 12.613L3.43217 13.2335L3.4917 12.5236L3.5634 13.1738C3.5634 13.1738 3.61288 12.3667 3.62292 12.393C3.63296 12.4193 3.81218 13.1511 3.81218 13.1121C3.78271 12.48 3.79374 11.8467 3.84519 11.216C3.84482 11.7383 3.98096 12.2519 4.24034 12.7068C4.09024 12.2313 4.04143 11.7302 4.09695 11.2352C4.13047 11.7209 4.23529 12.1992 4.40815 12.6549C4.36699 12.208 4.39112 11.7576 4.47985 11.3175C4.47985 11.3175 4.65914 11.8279 4.89794 11.9656C4.74263 11.653 4.66097 11.3095 4.65913 10.9611C4.69892 11.1699 4.79144 11.3653 4.92805 11.5291C4.88314 11.2359 4.87304 10.9386 4.89794 10.6431L5.03704 11.0861L5.16616 9.71745L5.21562 10.1434L5.26508 9.64075C5.26508 9.64075 5.36479 10.1235 5.36479 10.0937C5.36479 10.0638 5.4645 9.40436 5.4645 9.40436L5.54407 10.4188L5.65306 10.0049C5.65306 10.0049 5.68317 11.0584 5.68317 11.0293C5.68317 11.0002 5.80223 10.1135 5.80223 10.1135C5.80223 10.1135 5.87392 10.8717 5.87392 10.8419C5.87392 10.8121 5.93351 10.2804 5.9457 10.3102C5.95789 10.34 6.14433 11.0094 6.14433 11.0094L6.16438 10.6055L6.25402 11.0094L6.33359 10.6353C6.33359 10.6353 6.45343 11.216 6.45343 11.1869C6.45343 11.1578 6.50289 10.8029 6.50289 10.8029C6.6917 10.9804 6.82907 11.2046 6.90085 11.4524C7.04187 12.1028 7.11185 12.7663 7.10955 13.4316C7.10955 14.2884 7.16912 14.5674 7.21932 14.6036C8.25126 15.4207 10.9799 14.7214 10.9799 14.7214C11.5599 14.6789 12.106 14.4348 12.5217 14.0321C13.928 13.4117 13.9804 12.6833 13.9804 12.6833C14.6437 9.26949 15.9696 8.48152 15.9696 8.48152C13.8584 11.4325 14.5877 13.1625 14.6888 13.3705L14.6996 13.3918C15.0103 13.3972 15.32 13.4303 15.6247 13.4905C16.241 13.676 16.8804 13.7754 17.5244 13.7858C18.1698 13.8944 18.121 13.697 18.121 13.697C18.4294 13.8056 18.5685 13.658 18.5685 13.658C18.6218 13.6765 18.6783 13.6843 18.7347 13.6809C18.7911 13.6775 18.8463 13.6629 18.897 13.6381C19.8615 13.264 18.4789 13.2051 17.8127 13.1163C17.1465 13.0276 16.9872 12.9886 16.9177 12.6436C16.7565 11.7781 16.6535 10.9031 16.6094 10.0241C16.5653 8.97027 16.7731 7.92098 17.216 6.96166C17.4347 6.32276 17.9023 6.56765 18.8174 6.55771C19.2251 6.52766 19.6351 6.56436 20.0308 6.66634C20.1204 6.82393 20.6675 7.04047 20.6675 7.04047C21.162 7.25277 21.6267 7.5274 22.0501 7.85755C22.337 8.084 22.7063 8.38923 22.7063 8.38923C22.8169 8.47536 22.9536 8.5222 23.0943 8.5222C23.235 8.5222 23.3717 8.47536 23.4823 8.38923C23.7806 8.21176 23.8803 8.38925 23.9599 8.25153C23.9342 7.59718 23.861 6.94548 23.7411 6.30147C23.7385 6.05389 23.831 5.81458 24 5.63206C23.8173 4.89088 23.5628 4.1689 23.2399 3.47615ZM10.8149 10.1625C10.5594 11.2972 10.6074 12.4784 10.9541 13.5891C10.9541 13.5891 10.6062 13.8454 10.1881 13.1852L10.1782 13.1455L10.6658 13.352L10.1588 12.8501L10.5467 13.0468L10.0993 12.3774L10.3861 12.6237L10.1474 12.0721L10.4163 12.3774C10.1898 11.6145 10.1121 10.8158 10.1874 10.0241C10.1874 10.0241 10.2778 10.3081 10.3022 10.4074C10.2864 10.2151 10.2865 9.16727 10.2865 9.16727L10.4951 9.53144L10.6443 8.67463L10.734 9.15734L10.8429 8.6157L10.863 9.01961C10.863 9.01961 10.9526 8.46802 11.1613 8.3303C11.0032 8.93233 10.8876 9.54455 10.8156 10.1625H10.8149Z" fill="white"/>
</svg>
