<svg width="72" height="72" viewBox="0 0 72 72" fill="none" xmlns="http://www.w3.org/2000/svg">
    <g clip-path="url(#clip0)">
        <path d="M70.9231 44.7058C66.1131 64.0018 46.5631 75.7316 27.2947 70.9214C7.99815 66.1114 -3.73166 46.5623 1.07856 27.2942C5.88849 7.99815 25.4101 -3.73166 44.7066 1.07856C63.9751 5.86037 75.7333 25.4095 70.9231 44.7058Z" fill="url(#paint0_linear)"/>
        <path d="M53.1407 31.514C53.8439 26.7327 50.2157 24.1452 45.2095 22.4296L46.8407 15.9327L42.9032 14.9483L41.3282 21.2765C40.2876 21.0233 39.2189 20.7702 38.1501 20.5452L39.7251 14.189L35.7876 13.2046L34.1845 19.6733C33.3126 19.4765 32.4688 19.2796 31.6532 19.0827V19.0546L26.197 17.7046L25.1563 21.9233C25.1563 21.9233 28.0813 22.5983 28.0251 22.6265C29.6282 23.0202 29.9095 24.089 29.8532 24.9327L27.997 32.3296C28.1095 32.3577 28.2501 32.3858 28.4188 32.4702C28.2782 32.4421 28.1376 32.414 27.997 32.3577L25.4095 42.7077C25.2126 43.1858 24.7063 43.9171 23.6095 43.6358C23.6376 43.6921 20.7407 42.9327 20.7407 42.9327L18.772 47.4608L23.9188 48.7546C24.8751 49.0077 25.8032 49.2327 26.7313 49.4858L25.1001 56.039L29.0376 57.0233L30.6688 50.5265C31.7376 50.8077 32.8063 51.089 33.8188 51.3421L32.2157 57.8108L36.1532 58.7952L37.7845 52.2421C44.5345 53.5077 49.597 53.0015 51.7064 46.8983C53.422 42.0046 51.622 39.164 48.0782 37.3077C50.6939 36.7171 52.6345 35.0015 53.1407 31.514ZM44.1126 44.1702C42.9032 49.064 34.6345 46.4202 31.9626 45.7452L34.1282 37.0546C36.8001 37.7296 45.4063 39.0515 44.1126 44.1702ZM45.3501 31.4296C44.2251 35.9015 37.3626 33.6233 35.1407 33.0608L37.1095 25.1858C39.3314 25.7483 46.5032 26.789 45.3501 31.4296Z" fill="white"/>
    </g>
    <defs>
        <linearGradient id="paint0_linear" x1="35.9805" y1="-0.01728" x2="35.9805" y2="71.9927" gradientUnits="userSpaceOnUse">
            <stop stop-color="#F9AA4B"/>
            <stop offset="1" stop-color="#F7931A"/>
        </linearGradient>
        <clipPath id="clip0">
            <rect width="72" height="72" fill="white"/>
        </clipPath>
    </defs>
</svg>
