<svg width="33" height="32" viewBox="0 0 33 32" fill="none" xmlns="http://www.w3.org/2000/svg">
<path d="M16.2128 31.3642C19.4194 31.3642 22.5561 30.4445 25.2263 28.7213C27.8965 26.9981 29.9802 24.5489 31.214 21.6834C32.4478 18.8179 32.7762 15.6647 32.1577 12.6227C31.5393 9.58066 30.0017 6.78637 27.7394 4.59319C25.4771 2.40001 22.5918 0.906432 19.4482 0.301335C16.3047 -0.303763 13.0441 0.0067949 10.0788 1.19374C7.11358 2.38068 4.57681 4.39069 2.78932 6.9696C1.00182 9.54851 0.0438894 12.5805 0.0366526 15.6821C0.0269485 19.8413 1.72576 23.8301 4.75938 26.771C7.79299 29.712 11.9129 31.3642 16.2128 31.3642ZM15.1121 6.72073C15.1127 6.4236 15.2354 6.13864 15.4531 5.92854C15.6708 5.71844 15.9657 5.6004 16.2729 5.6004C16.5801 5.6004 16.8744 5.71844 17.0911 5.92854C17.3079 6.13864 17.4292 6.4236 17.4285 6.72073L17.4089 15.1445L22.7552 19.289C22.9419 19.4341 23.0773 19.6318 23.1427 19.8548C23.2081 20.0778 23.2003 20.3151 23.1203 20.5339C23.0404 20.7527 22.8923 20.9423 22.6964 21.0765C22.5006 21.2107 22.2666 21.2829 22.0269 21.2831C21.7634 21.2844 21.5078 21.1972 21.3037 21.0366L15.5236 16.5559C15.3886 16.4509 15.2797 16.3179 15.2049 16.1667C15.13 16.0155 15.0912 15.8499 15.0911 15.6821L15.1121 6.72073Z" fill="white"/>
</svg>
