<svg width="17" height="17" viewBox="0 0 17 17" fill="none" xmlns="http://www.w3.org/2000/svg">
    <path fill-rule="evenodd" clip-rule="evenodd" d="M8.34978 15.842L13.8348 9.90196C13.9367 9.78389 13.9926 9.63303 13.9922 9.47708C13.9918 9.32113 13.9352 9.17054 13.8328 9.05296L9.96478 9.04796V1.02396C9.96478 0.470955 9.52578 0.0239553 8.98278 0.0239553H7.01778C6.8876 0.0250006 6.75891 0.0517111 6.63906 0.102557C6.51922 0.153403 6.41058 0.227387 6.31937 0.320273C6.22815 0.413159 6.15615 0.523125 6.10749 0.643872C6.05883 0.76462 6.03446 0.893778 6.03578 1.02396V9.04396L2.22478 9.03896C2.12383 9.15738 2.06871 9.30809 2.06945 9.4637C2.07018 9.61931 2.12672 9.76949 2.22878 9.88696L7.58578 15.841C7.63321 15.8957 7.69183 15.9396 7.7577 15.9698C7.82356 15.9999 7.89512 16.0155 7.96755 16.0156C8.03998 16.0157 8.11159 16.0003 8.17753 15.9703C8.24347 15.9403 8.30221 15.8966 8.34978 15.842Z" fill="#E90A3D"/>
</svg>
