<svg width="24" height="24" viewBox="0 0 24 24" fill="none" xmlns="http://www.w3.org/2000/svg">
    <path d="M14.6668 0V2.667H19.4468L6.33984 15.773L8.22684 17.66L21.3328 4.553V9.333H23.9998V0H14.6668Z" fill="#001560"/>
    <path d="M21.333 21.333H2.667V2.667H12V1.87635e-07H2.667C2.31673 -0.000131222 1.96986 0.0687631 1.64623 0.202746C1.32259 0.336729 1.02853 0.533173 0.780853 0.780853C0.533173 1.02853 0.336729 1.32259 0.202746 1.64623C0.0687631 1.96986 -0.000131222 2.31673 1.87635e-07 2.667V21.333C-0.000131222 21.6833 0.0687631 22.0301 0.202746 22.3538C0.336729 22.6774 0.533173 22.9715 0.780853 23.2191C1.02853 23.4668 1.32259 23.6633 1.64623 23.7973C1.96986 23.9312 2.31673 24.0001 2.667 24H21.333C21.6833 24.0001 22.0301 23.9312 22.3538 23.7973C22.6774 23.6633 22.9715 23.4668 23.2191 23.2191C23.4668 22.9715 23.6633 22.6774 23.7973 22.3538C23.9312 22.0301 24.0001 21.6833 24 21.333V12H21.333V21.333Z" fill="#001560"/>
</svg>
