<svg width="26" height="26" viewBox="0 0 26 26" fill="none" xmlns="http://www.w3.org/2000/svg">
    <path d="M13 26C20.1797 26 26 20.1797 26 13C26 5.8203 20.1797 0 13 0C5.8203 0 0 5.8203 0 13C0 20.1797 5.8203 26 13 26Z" fill="#3B5998"/>
    <path d="M16.2677 13.5091H13.9497V22.0091H10.4337V13.5091H8.76172V10.5221H10.4337V8.58914C10.3968 8.11406 10.4631 7.63661 10.6283 7.18962C10.7934 6.74263 11.0534 6.3367 11.3903 5.99975C11.7273 5.6628 12.1332 5.40282 12.5802 5.23769C13.0272 5.07256 13.5046 5.00619 13.9797 5.04314L16.5797 5.05414V7.95414H14.6937C14.5884 7.94868 14.4832 7.96659 14.3856 8.00658C14.288 8.04657 14.2005 8.10765 14.1293 8.18545C14.058 8.26325 14.0049 8.35584 13.9737 8.45658C13.9425 8.55732 13.934 8.66372 13.9487 8.76814V10.5261H16.5757L16.2677 13.5091Z" fill="white"/>
</svg>
