<svg width="20" height="20" viewBox="0 0 20 20" fill="none" xmlns="http://www.w3.org/2000/svg">
    <path d="M17.954 6.28322H12.238L13.494 3.14222C13.6704 2.70319 13.7138 2.22198 13.6189 1.75846C13.5239 1.29494 13.2948 0.869555 12.96 0.535224C12.7726 0.34758 12.5466 0.203042 12.2977 0.111681C12.0488 0.0203205 11.7829 -0.0156662 11.5186 0.0062287C11.2544 0.0281236 10.9981 0.107373 10.7676 0.238457C10.5371 0.36954 10.3379 0.549304 10.184 0.765224L6.861 5.41622C6.36596 6.11049 5.81406 6.7624 5.211 7.36522L4.79 7.78622C4.5598 7.2606 4.15578 6.83017 3.64577 6.56718C3.13576 6.3042 2.55081 6.22466 1.98909 6.34193C1.42738 6.4592 0.923107 6.76613 0.560918 7.2112C0.19873 7.65628 0.000675208 8.2124 0 8.78622V16.7862C0.000675208 17.36 0.19873 17.9162 0.560918 18.3612C0.923107 18.8063 1.42738 19.1133 1.98909 19.2305C2.55081 19.3478 3.13576 19.2683 3.64577 19.0053C4.15578 18.7423 4.5598 18.3118 4.79 17.7862L5.339 18.3362C5.6405 18.639 5.99896 18.8791 6.39372 19.0427C6.78847 19.2063 7.2117 19.29 7.639 19.2892H14.12C14.6278 19.2893 15.1248 19.1422 15.5507 18.8657C15.9767 18.5891 16.3134 18.1951 16.52 17.7312L19.7 10.5742C19.899 10.1231 20.0012 9.63528 20 9.14222V8.33122C19.9997 7.78849 19.7842 7.26803 19.4006 6.88407C19.017 6.50011 18.4967 6.28402 17.954 6.28322ZM2.5 18.2832C2.10218 18.2832 1.72064 18.1252 1.43934 17.8439C1.15804 17.5626 1 17.1811 1 16.7832V8.78322C1 8.3854 1.15804 8.00387 1.43934 7.72256C1.72064 7.44126 2.10218 7.28322 2.5 7.28322C2.89782 7.28322 3.27936 7.44126 3.56066 7.72256C3.84196 8.00387 4 8.3854 4 8.78322V16.7832C4 17.1811 3.84196 17.5626 3.56066 17.8439C3.27936 18.1252 2.89782 18.2832 2.5 18.2832ZM19 9.14222C19.0006 9.49642 18.9263 9.84674 18.782 10.1702L15.6 17.3192C15.4724 17.6062 15.2642 17.85 15.0008 18.0211C14.7374 18.1922 14.4301 18.2833 14.116 18.2832H7.642C7.34483 18.2844 7.05038 18.2266 6.77572 18.1132C6.50107 17.9997 6.25167 17.8328 6.042 17.6222L5 16.5762V8.99022L5.918 8.07222C6.56021 7.43022 7.14822 6.73618 7.676 5.99722L11 1.34222C11.069 1.24483 11.1585 1.16367 11.2621 1.10442C11.3657 1.04518 11.4811 1.00928 11.6 0.999225C11.7195 0.989682 11.8396 1.0061 11.9522 1.04735C12.0647 1.08861 12.167 1.15372 12.252 1.23822C12.4482 1.43423 12.5824 1.68355 12.638 1.9552C12.6937 2.22686 12.6683 2.50888 12.565 2.76622L11.035 6.59323C11.0048 6.66904 10.9936 6.75109 11.0024 6.83221C11.0112 6.91334 11.0398 6.99107 11.0855 7.05864C11.1313 7.1262 11.1929 7.18153 11.265 7.21981C11.3371 7.25808 11.4174 7.27814 11.499 7.27822H17.953C18.0908 7.27822 18.2273 7.30544 18.3546 7.3583C18.4819 7.41117 18.5975 7.48865 18.6948 7.5863C18.792 7.68394 18.8691 7.79984 18.9215 7.92733C18.9738 8.05482 19.0005 8.19139 19 8.32922V9.14222Z" fill="#001560"/>
</svg>
