<svg width="26" height="26" viewBox="0 0 26 26" fill="none" xmlns="http://www.w3.org/2000/svg">
    <path d="M23.648 0H2.352C1.72821 0 1.12997 0.247799 0.688885 0.688885C0.247799 1.12997 0 1.72821 0 2.352L0 23.652C0.00105969 24.2751 0.249327 24.8723 0.690297 25.3125C1.13127 25.7528 1.7289 26 2.352 26H23.652C24.2751 25.9989 24.8723 25.7507 25.3125 25.3097C25.7528 24.8687 26 24.2711 26 23.648V2.352C26 1.72821 25.7522 1.12997 25.3111 0.688885C24.87 0.247799 24.2718 0 23.648 0ZM8.046 22.45C8.046 22.6314 7.97394 22.8054 7.84566 22.9337C7.71739 23.0619 7.54341 23.134 7.362 23.134H4.448C4.26659 23.134 4.09261 23.0619 3.96434 22.9337C3.83606 22.8054 3.764 22.6314 3.764 22.45V10.237C3.764 10.0556 3.83606 9.88161 3.96434 9.75334C4.09261 9.62506 4.26659 9.553 4.448 9.553H7.361C7.54241 9.553 7.71639 9.62506 7.84466 9.75334C7.97294 9.88161 8.045 10.0556 8.045 10.237L8.046 22.45ZM5.9 8.4C5.35267 8.39921 4.81786 8.23617 4.36317 7.9315C3.90848 7.62682 3.55432 7.19418 3.34546 6.68827C3.1366 6.18235 3.08241 5.62588 3.18975 5.08917C3.29709 4.55247 3.56113 4.05964 3.9485 3.67297C4.33587 3.28629 4.82918 3.02314 5.36607 2.91678C5.90297 2.81041 6.45935 2.8656 6.96488 3.07537C7.47042 3.28515 7.90242 3.64009 8.20627 4.09533C8.51013 4.55057 8.6722 5.08567 8.672 5.633C8.67187 5.99675 8.60004 6.35691 8.46063 6.69289C8.32122 7.02886 8.11695 7.33406 7.8595 7.59104C7.60206 7.84802 7.29649 8.05174 6.96027 8.19054C6.62404 8.32935 6.26375 8.40053 5.9 8.4ZM23.267 22.5C23.267 22.6668 23.2007 22.8268 23.0828 22.9448C22.9648 23.0627 22.8048 23.129 22.638 23.129H19.516C19.3492 23.129 19.1892 23.0627 19.0712 22.9448C18.9533 22.8268 18.887 22.6668 18.887 22.5V16.777C18.887 15.922 19.138 13.032 16.654 13.032C14.727 13.032 14.336 15.01 14.254 15.898V22.505C14.254 22.6718 14.1877 22.8318 14.0698 22.9498C13.9518 23.0677 13.7918 23.134 13.625 23.134H10.6C10.4332 23.134 10.2732 23.0677 10.1552 22.9498C10.0373 22.8318 9.971 22.6718 9.971 22.505V10.182C9.971 10.0152 10.0373 9.85519 10.1552 9.73723C10.2732 9.61927 10.4332 9.553 10.6 9.553H13.624C13.7908 9.553 13.9508 9.61927 14.0688 9.73723C14.1867 9.85519 14.253 10.0152 14.253 10.182V11.248C14.967 10.176 16.029 9.348 18.29 9.348C23.296 9.348 23.268 14.025 23.268 16.595V22.506L23.267 22.5Z" fill="#0077B7"/>
</svg>
