<svg width="37" height="72" viewBox="0 0 37 72" fill="none" xmlns="http://www.w3.org/2000/svg">
    <path fill-rule="evenodd" clip-rule="evenodd" d="M24.6764 10.7597C24.7622 10.7317 24.8549 10.7397 24.9352 10.782C24.9743 10.8026 25.0092 10.8311 25.0377 10.866C25.0662 10.9008 25.0877 10.9413 25.1011 10.985C25.1011 11.0745 25.226 11.0937 25.296 11.1449C25.5123 11.2832 25.7612 11.355 26.0145 11.3525C26.147 11.3525 26.2185 11.4868 26.2368 11.6402C26.2704 11.8111 26.2387 11.9891 26.1485 12.1356L25.9262 12.4952C25.977 12.5049 26.0295 12.4959 26.0747 12.4697C26.12 12.4435 26.1552 12.4016 26.1744 12.3513L26.3266 12.0716C26.3623 11.9885 26.4142 11.9142 26.479 11.8534C26.5437 11.7925 26.6199 11.7465 26.7026 11.7185C26.7865 11.6895 26.8751 11.6788 26.9631 11.6871C27.051 11.6953 27.1364 11.7223 27.2141 11.7665C27.5688 11.947 27.9417 12.0733 28.3147 12.2251C28.3917 12.2396 28.4652 12.2702 28.5308 12.3149C28.5964 12.3596 28.6528 12.4177 28.6968 12.4856C28.6968 12.5671 28.8033 12.5574 28.8657 12.5303C28.9077 12.5136 28.9534 12.5099 28.9973 12.5195C29.0413 12.5292 29.0817 12.5518 29.1139 12.5847C29.2374 12.7053 29.3353 12.8518 29.4012 13.0148C29.467 13.1779 29.4993 13.3537 29.4959 13.5307C29.5447 13.5405 29.5951 13.5364 29.642 13.519C29.6888 13.5016 29.7303 13.4714 29.7624 13.4316C29.8365 13.3631 29.9285 13.3196 30.0266 13.3068C30.1246 13.2939 30.224 13.3124 30.3119 13.3597C30.6164 13.4764 30.9208 13.593 31.2435 13.7017C31.6942 13.7976 32.156 13.8218 32.6136 13.7736C32.9315 13.7643 33.2435 13.8654 33.5011 14.0612C33.8707 14.3149 34.2078 14.6174 34.5042 14.961C34.7461 15.1891 35.0002 15.4025 35.2654 15.6001C35.3905 15.6975 35.5457 15.7425 35.7008 15.7263H36.092C36.2627 15.7229 36.429 15.7837 36.5608 15.8977C36.6925 16.0117 36.7811 16.1715 36.8105 16.348C37.0632 17.2135 37.0632 18.1385 36.8105 19.004C36.7169 19.2762 36.5788 19.5293 36.4025 19.7519C36.2244 20.0124 36.0113 20.2473 35.8438 20.5269C35.7887 20.6144 35.716 20.688 35.6307 20.7427C35.1781 21.0554 34.8425 21.5229 34.6808 22.0658C34.6095 22.2827 34.5012 22.4842 34.3612 22.6603C34.2637 22.7946 34.1663 22.94 33.9973 22.948C33.8283 22.956 33.7401 23.0838 33.7127 23.2676C33.6119 23.862 33.5939 24.4686 33.6594 25.0685C33.6907 25.4353 33.6728 25.8049 33.6061 26.1664C33.5624 26.3583 33.5359 26.5542 33.5269 26.7513C33.5326 27.075 33.4357 27.3914 33.2514 27.651C33.1408 27.8299 33.091 28.0427 33.1099 28.255C33.1349 28.4475 33.1207 28.6433 33.0682 28.8295C33.0157 29.0158 32.9261 29.1882 32.8054 29.3354C32.7505 29.4155 32.714 29.5079 32.6988 29.6053C32.6194 29.845 32.4993 30.0676 32.3441 30.2621C32.1662 30.4582 32.0587 30.713 32.0397 30.9829C32.0449 31.1224 32.0071 31.2599 31.932 31.375C31.8569 31.4902 31.7483 31.5768 31.6226 31.6221C31.5361 31.6508 31.4581 31.7022 31.396 31.7716C31.3338 31.841 31.2897 31.926 31.2679 32.0184C31.2516 32.0879 31.2143 32.15 31.1616 32.1955C31.109 32.241 31.0437 32.2675 30.9756 32.2709C30.8485 32.3065 30.7175 32.3248 30.5859 32.3252C30.1792 32.2834 29.7689 32.3044 29.3681 32.3876H29.3498C29.2615 32.72 28.9236 32.648 28.7637 32.867C28.6612 32.9888 28.5189 33.0658 28.3649 33.0827C28.1041 33.1357 27.8602 33.2566 27.6555 33.4343C27.2113 33.8176 26.7932 34.233 26.4042 34.6775C26.2791 34.8218 26.1867 34.9939 26.134 35.181C26.0813 35.3681 26.0696 35.5653 26.0998 35.7579C26.1066 35.9671 26.1457 36.1738 26.2154 36.3699V36.5058C26.1272 36.7341 26.0907 36.9808 26.1089 37.2265C26.1158 37.4055 26.0771 37.5832 25.9968 37.7414C25.9166 37.8995 25.7976 38.0323 25.6522 38.1261C25.5228 38.2204 25.4181 38.3473 25.3478 38.4953C25.0805 38.8653 24.8874 39.2881 24.7799 39.7385C24.6877 39.9975 24.5589 40.2406 24.3978 40.4593C24.3354 40.5856 24.2456 40.7022 24.1848 40.8381C24.1159 40.9844 24.0107 41.1086 23.8803 41.1976L23.454 41.5395C23.2553 41.7059 23.115 41.937 23.0552 42.1964C22.9744 42.5245 22.8015 42.8196 22.559 43.0434C22.3812 43.2081 22.239 43.4107 22.1418 43.6378C21.9997 44.0242 21.7294 44.3438 21.3807 44.5375C21.3071 44.5888 21.2234 44.6219 21.1359 44.6344C21.0483 44.6468 20.9593 44.6383 20.8753 44.6094C20.7251 44.5728 20.5689 44.5728 20.4186 44.6094C20.0678 44.6478 19.7148 44.5624 19.4155 44.3665C19.2832 44.2806 19.1346 44.2259 18.9801 44.2067C18.8749 44.213 18.77 44.1897 18.6764 44.1391C18.5827 44.0885 18.5036 44.0125 18.4473 43.919C18.4431 43.9076 18.4368 43.8972 18.4286 43.8884C18.4205 43.8796 18.4108 43.8727 18.4001 43.8679C18.3781 43.8586 18.3536 43.8586 18.3316 43.8679C18.3084 43.8859 18.291 43.9106 18.2815 43.9391C18.272 43.9676 18.2709 43.9985 18.2783 44.0277C18.2868 44.0992 18.3124 44.1672 18.3529 44.2254C18.3934 44.2836 18.4474 44.3299 18.5097 44.3601C18.7224 44.4909 18.9166 44.6523 19.0867 44.8395C19.1601 44.9094 19.2115 45.0012 19.2338 45.1027C19.2561 45.2041 19.2483 45.3101 19.2115 45.4068C19.0867 45.8031 19.1399 45.947 19.4961 46.1084C19.5548 46.1321 19.6051 46.1744 19.6399 46.2293C19.6748 46.2842 19.6927 46.3492 19.691 46.4152C19.7213 46.6597 19.6713 46.9077 19.5494 47.1184C19.452 47.2622 19.3637 47.4251 19.2571 47.569C19.1403 47.7193 19.0557 47.8942 19.009 48.0819C18.9926 48.1892 18.9495 48.2901 18.884 48.3743C18.8185 48.4585 18.7329 48.5231 18.636 48.5614C18.1521 48.7976 17.6401 48.9642 17.1138 49.0568C16.8643 49.0883 16.6179 49.1418 16.377 49.2166C15.9942 49.2855 15.6011 49.2547 15.2322 49.127C15.2186 49.2726 15.253 49.4188 15.3297 49.541C15.3866 49.6369 15.4168 49.7476 15.4168 49.8606C15.4168 49.9736 15.3866 50.0842 15.3297 50.1801C15.2114 50.3922 15.1734 50.6432 15.2231 50.8833C15.2764 51.3627 15.2231 51.433 14.841 51.6487C14.663 51.7615 14.459 51.8212 14.2511 51.8212C14.0432 51.8212 13.8393 51.7615 13.6613 51.6487C13.509 51.5497 13.3416 51.489 13.1818 51.4059C13.0219 51.3228 13.0295 51.4059 13.0036 51.5145C12.9817 51.6365 12.9817 51.7617 13.0036 51.8837C13.0615 52.0725 13.0883 52.2703 13.0828 52.4685C13.0635 52.5816 13.0811 52.6982 13.1327 52.7994C13.1844 52.9006 13.2671 52.9805 13.3674 53.0262C13.439 53.0262 13.4649 53.1621 13.5532 53.1701C13.6415 53.1781 13.5532 52.9895 13.6415 52.9624C13.7541 52.9155 13.8695 52.8765 13.987 52.8457C14.0662 52.8457 14.1119 52.9272 14.1393 53.0055C14.2068 53.192 14.2221 53.395 14.1834 53.5904C14.1834 53.779 14.0144 53.8333 13.8789 53.87C13.8202 53.8838 13.7588 53.8772 13.7039 53.8513C13.649 53.8254 13.6036 53.7815 13.5745 53.7263C13.3888 53.4386 13.3888 53.4466 13.1483 53.7263C13.2457 53.8701 13.3964 53.8525 13.5212 53.9148C13.646 53.9771 13.6536 54.0746 13.5212 54.1497C13.4533 54.19 13.3882 54.2354 13.3264 54.2855C13.1806 54.3757 13.0639 54.5095 12.9912 54.6698C12.9185 54.8302 12.8932 55.0097 12.9184 55.1852C12.9604 55.3424 12.9619 55.5085 12.9229 55.6666C12.8839 55.8246 12.8056 55.9689 12.6961 56.0849C12.6644 56.1204 12.6419 56.164 12.6309 56.2113C12.62 56.2587 12.6209 56.3081 12.6337 56.355C12.6337 56.6155 12.6337 56.6522 12.4115 56.6618C12.1068 56.6726 11.8136 56.7861 11.5753 56.9856C11.3371 57.1851 11.1664 57.4599 11.0886 57.7693C11.0512 57.8522 11.0318 57.9428 11.0318 58.0346C11.0318 58.1263 11.0512 58.2169 11.0886 58.2999C11.2405 58.5927 11.4477 58.8498 11.6975 59.0557C11.8299 59.1581 11.9897 59.2141 12.1542 59.2155C12.4206 59.2155 12.5272 59.3417 12.5089 59.6389C12.4906 59.9362 12.3932 60.1519 12.3841 60.438C12.3739 60.4911 12.3538 60.5415 12.3247 60.5862C12.2957 60.631 12.2584 60.6692 12.2151 60.6985C11.8314 61.0063 11.4747 61.3497 11.1495 61.7245C11.073 61.7978 11.014 61.8888 10.977 61.9904C10.94 62.0919 10.9261 62.2011 10.9364 62.3093C10.9441 62.5679 10.8918 62.8245 10.7842 63.0572C10.7558 63.1345 10.7116 63.2042 10.6548 63.2617C10.598 63.3191 10.5299 63.3628 10.4553 63.3896C10.2628 63.4504 10.0906 63.5672 9.95863 63.7264C9.82664 63.8856 9.74026 64.0807 9.70944 64.2893C9.66467 64.4266 9.66467 64.5756 9.70944 64.7128C9.78371 64.9203 9.82284 65.1398 9.82512 65.3615C9.86616 65.6654 9.9857 65.9517 10.1707 66.1893C10.2331 66.2884 10.3747 66.3876 10.2955 66.5314C10.2164 66.6752 10.0733 66.5937 9.95756 66.5314C9.86383 66.5007 9.77184 66.4643 9.68203 66.4226C9.64985 66.4125 9.61548 66.413 9.58359 66.4242C9.5517 66.4353 9.52385 66.4565 9.50392 66.485C9.45064 66.5569 9.50391 66.6193 9.54805 66.6736C9.55883 66.7009 9.57498 66.7256 9.59544 66.746C9.61589 66.7663 9.64021 66.7819 9.66679 66.7918C9.69362 66.8021 9.72221 66.8066 9.75074 66.805C9.77927 66.8033 9.80715 66.7956 9.83273 66.7822C9.97431 66.7199 10.055 66.7822 10.1372 66.9085C10.2707 67.091 10.3812 67.2908 10.466 67.5029C10.466 67.5924 10.5375 67.6915 10.3777 67.6915C10.2179 67.6915 10.3062 67.781 10.3777 67.8178C10.5012 67.9642 10.5949 68.1355 10.6532 68.3212C10.7942 68.5628 10.9813 68.7712 11.2028 68.9332C11.4874 69.1761 11.7889 69.4014 12.0903 69.6715C12.166 69.7565 12.2585 69.8232 12.3613 69.8668C12.4641 69.9105 12.5747 69.93 12.6855 69.924C12.8012 69.924 12.9427 69.924 12.961 70.1045C12.9677 70.1466 12.9663 70.1896 12.957 70.231C12.9476 70.2725 12.9304 70.3116 12.9065 70.346C12.8825 70.3804 12.8522 70.4095 12.8174 70.4314C12.7826 70.4533 12.744 70.4677 12.7038 70.4737C12.4345 70.4924 12.1671 70.5346 11.9045 70.5999C11.802 70.6276 11.7037 70.6701 11.6123 70.7262C11.4601 70.7806 11.5499 70.8077 11.6123 70.886C11.6747 70.9643 11.6123 71.1385 11.5331 71.1113C11.1693 71.0912 10.8197 70.9565 10.5299 70.7246C10.5603 70.9532 10.6394 71.1718 10.7613 71.3638C10.8405 71.3638 10.8329 71.1928 10.9135 71.204C10.9864 71.2292 11.0551 71.2659 11.1175 71.3127C11.2412 71.4299 11.3385 71.5745 11.4022 71.7361C11.4232 71.7663 11.4346 71.8027 11.4346 71.84C11.4346 71.8774 11.4232 71.9137 11.4022 71.9439C11.3398 71.9439 11.2698 72.0701 11.1982 71.9439C11.1267 71.8176 11.046 71.8896 10.9592 71.8624C10.8724 71.8353 10.7902 71.8624 10.7902 71.7266C10.7902 71.5907 10.9227 71.7266 10.9592 71.5556C10.9192 71.5762 10.8757 71.588 10.8312 71.5905C10.7867 71.593 10.7423 71.586 10.7004 71.5699C10.6591 71.5543 10.6213 71.5298 10.5896 71.4979C10.5578 71.4659 10.5329 71.4273 10.5162 71.3846C10.4947 71.3582 10.4708 71.3342 10.4447 71.3127C10.4173 71.2952 10.2057 71.3127 10.0992 71.2312C9.9926 71.1497 9.99258 70.9883 9.86014 70.9611C9.72771 70.9339 9.86014 71.0602 9.86014 71.0953C9.86014 71.1305 9.97584 71.2552 9.86014 71.3303C9.84237 71.3499 9.82102 71.3655 9.79733 71.3761C9.77365 71.3868 9.74812 71.3922 9.72235 71.3922C9.69659 71.3922 9.6711 71.3868 9.64742 71.3761C9.62374 71.3655 9.60238 71.3499 9.58461 71.3303C9.45824 71.1637 9.30338 71.0233 9.12795 70.9163C9.04879 70.9163 9.06553 70.7725 9.12795 70.691C9.19036 70.6095 9.19036 70.4658 9.12795 70.4306C8.91498 70.2966 8.66289 70.2483 8.41856 70.2947L8.33025 70.4114C8.26895 70.3985 8.20582 70.3985 8.14452 70.4114C7.97555 70.4114 7.94055 70.3027 7.94968 70.1413H8.2785C8.10953 70.0055 7.9497 69.8984 8.10954 69.6459C8.17195 69.5564 8.03796 69.3758 7.94053 69.4302C7.8431 69.4845 7.61174 69.3759 7.39862 69.2864C7.47778 69.467 7.59347 69.6187 7.39862 69.6923C7.20377 69.7658 7.12307 69.6379 7.09415 69.4222C7.06522 69.2064 6.84602 69.2417 6.7212 69.1618C6.59637 69.0818 6.58877 69.1618 6.52636 69.1618C6.5012 69.1625 6.47639 69.1554 6.45505 69.1414C6.4337 69.1274 6.41676 69.1071 6.40636 69.083C6.39596 69.059 6.39255 69.0322 6.39656 69.0061C6.40057 68.98 6.41185 68.9558 6.42894 68.9364C6.52637 68.7926 6.52637 68.7766 6.42894 68.711C6.33151 68.6455 6.35739 68.3515 6.15341 68.342C5.94942 68.3324 6.00117 68.3419 6.00117 68.2061C6.00117 68.0703 6.06357 68.0623 6.14272 68.0463C6.22188 68.0303 6.2493 67.9919 6.23104 67.92C6.21277 67.8481 6.15187 67.8481 6.09859 67.8481C6.04531 67.8481 5.90377 67.984 5.79416 67.9472C5.68456 67.9105 5.79416 67.7139 5.66934 67.6276C5.57396 67.5714 5.49736 67.4857 5.44997 67.3822C5.40258 67.2787 5.38669 67.1624 5.40444 67.0491C5.68776 67.2671 5.98422 67.4657 6.29194 67.6436C6.32042 67.6755 6.35485 67.701 6.39308 67.7184C6.4313 67.7358 6.47252 67.7447 6.51419 67.7447C6.55586 67.7447 6.59707 67.7358 6.6353 67.7184C6.67353 67.701 6.70795 67.6755 6.73643 67.6436C6.66836 67.6545 6.59876 67.6408 6.53904 67.6048C6.47932 67.5688 6.433 67.5126 6.40762 67.4454C6.33607 67.2856 6.25541 67.1258 6.06969 67.0859C5.88398 67.0459 5.91746 66.8877 5.93725 66.7439C5.95704 66.6001 5.98141 66.6 5.89311 66.6176C5.80482 66.6352 5.69826 66.4579 5.61758 66.3652C5.51102 66.4643 5.55514 66.6256 5.47599 66.7167C5.32042 66.6248 5.20058 66.4784 5.13741 66.3031C5.07425 66.1279 5.07179 65.9349 5.13044 65.7579C5.14042 65.699 5.16841 65.6452 5.21016 65.6045C5.25192 65.5638 5.30513 65.5386 5.3618 65.5326C5.51402 65.5326 5.69062 65.6141 5.79718 65.3967C5.79718 65.3344 5.89461 65.3967 5.92201 65.4511C5.99963 65.5587 6.04853 65.6862 6.06361 65.8202C6.06361 65.98 6.17926 66.0807 6.2158 66.2165C6.25233 66.3524 6.25994 66.2165 6.28734 66.2165C6.31474 66.2165 6.36651 66.2166 6.34063 66.1446C6.20819 65.9737 6.29649 65.694 6.0925 65.5597C6.02096 65.5597 5.99507 65.4 5.96006 65.3169C5.92505 65.2338 5.9068 65.2178 5.81851 65.2082C5.78747 65.2043 5.75792 65.192 5.73279 65.1725C5.70767 65.153 5.68784 65.127 5.67524 65.097C5.66263 65.067 5.65769 65.034 5.66093 65.0014C5.66416 64.9688 5.67546 64.9376 5.69368 64.9109C5.73725 64.8265 5.76006 64.732 5.76006 64.636C5.76006 64.5401 5.73725 64.4456 5.69368 64.3612C5.6404 64.5945 5.56123 64.8119 5.50795 65.0372C5.45467 65.2625 5.41054 65.2625 5.31311 65.2353C5.24914 65.2184 5.18148 65.2264 5.12269 65.2578C5.06389 65.2893 5.01798 65.342 4.99344 65.4063C4.97651 65.4188 4.95627 65.4255 4.93556 65.4255C4.91485 65.4255 4.89466 65.4188 4.87772 65.4063C4.80618 65.4063 4.8062 65.3168 4.81533 65.2465C4.8241 65.0137 4.91977 64.7938 5.08171 64.6345C5.18827 64.5354 5.25071 64.4747 5.19743 64.3149C5.18023 64.2575 5.18036 64.196 5.19781 64.1388C5.21525 64.0816 5.24915 64.0314 5.29485 63.9952C5.43642 63.8962 5.29485 63.7076 5.39227 63.5542C5.4897 63.4008 5.39226 63.2745 5.2857 63.1674C5.24484 63.1228 5.21537 63.0681 5.19994 63.0084C5.18451 62.9486 5.18365 62.8857 5.19743 62.8255C5.21158 62.7354 5.20168 62.6429 5.16891 62.5583C5.13614 62.4737 5.08175 62.4003 5.0117 62.3461C4.9824 62.323 4.95859 62.2931 4.9422 62.2587C4.92582 62.2243 4.9173 62.1863 4.9173 62.1479C4.9173 62.1094 4.92582 62.0716 4.9422 62.0372C4.95859 62.0028 4.9824 61.9729 5.0117 61.9498C4.84273 61.9498 4.77268 62.2023 4.64786 62.0584C4.59918 61.9966 4.56695 61.9223 4.55439 61.8432C4.54182 61.764 4.54938 61.6828 4.57632 61.6077C4.62959 61.4192 4.692 61.2386 4.74528 61.058C4.79856 60.8774 4.8427 60.8423 4.74528 60.7065C4.71417 60.6596 4.69752 60.6039 4.69752 60.5467C4.69752 60.4896 4.71417 60.4338 4.74528 60.3869C4.79547 60.3343 4.82391 60.2631 4.82444 60.1887C4.82444 60.0001 4.91275 59.9187 5.06345 59.9362C5.1004 59.9423 5.1358 59.9562 5.16747 59.9771C5.19914 59.998 5.22641 60.0254 5.24765 60.0577C5.26857 60.0895 5.28281 60.1256 5.28937 60.1636C5.29593 60.2016 5.29466 60.2407 5.2857 60.2782C5.26748 60.4337 5.26748 60.591 5.2857 60.7465C5.27971 60.7823 5.28229 60.8192 5.29318 60.8538C5.30407 60.8883 5.32296 60.9195 5.34814 60.9446C5.39854 60.9941 5.4326 61.0592 5.44546 61.1305C5.45832 61.2017 5.44931 61.2754 5.41968 61.3409C5.41544 61.3792 5.42366 61.4179 5.443 61.4507C5.46234 61.4835 5.49165 61.5084 5.5262 61.5215C5.56751 61.4412 5.58915 61.3514 5.58915 61.2602C5.58915 61.169 5.56751 61.0792 5.5262 60.9989C5.46407 60.8666 5.42787 60.7226 5.41968 60.5754C5.41968 60.3677 5.46379 60.3229 5.65103 60.3501C5.76879 60.3935 5.89712 60.3935 6.01488 60.3501C5.95246 60.1615 5.79262 60.2063 5.68606 60.1615C5.5795 60.1168 5.51708 60.1615 5.42879 60.1615C5.40901 60.1581 5.39027 60.1499 5.37392 60.1377C5.35757 60.1256 5.34407 60.1097 5.33443 60.0912C5.3256 60.0729 5.32101 60.0527 5.32101 60.0321C5.32101 60.0116 5.3256 59.9913 5.33443 59.973C5.45013 59.802 5.43182 59.5591 5.59166 59.4233C5.66279 59.3607 5.71252 59.2753 5.73326 59.1803C5.73326 59.0205 5.64498 58.8288 5.53842 58.8927C5.28116 59.0285 5.1213 58.8927 4.95233 58.7329C4.83664 58.7329 4.88992 58.8591 4.88079 58.9215C4.87165 58.9838 4.8275 59.1196 4.72855 59.11C4.68115 59.1025 4.63853 59.0756 4.61 59.0352C4.58146 58.9948 4.56933 58.944 4.57632 58.8943C4.56587 58.8211 4.57171 58.7464 4.59336 58.676C4.61502 58.6055 4.65191 58.5414 4.70114 58.4884C4.84271 58.3526 4.94017 58.1688 5.11827 58.0921C5.11827 57.9834 5.04669 57.9658 5.02081 57.9035C4.99493 57.8412 5.02083 57.651 5.16241 57.6334C5.33074 57.6237 5.49946 57.6237 5.6678 57.6334C5.46382 57.5439 5.30396 57.544 5.17913 57.4257C5.0543 57.3075 5.0817 57.2659 5.17913 57.2371C5.27656 57.2083 5.32071 57.0485 5.38312 56.9495C5.57797 56.5899 5.59623 56.3278 5.20501 56.1392C5.18468 56.1291 5.16751 56.1132 5.15548 56.0933C5.14346 56.0733 5.13709 56.0502 5.13709 56.0266C5.13709 56.003 5.14346 55.9799 5.15548 55.96C5.16751 55.94 5.18468 55.924 5.20501 55.9139C5.2714 55.8801 5.32882 55.8296 5.37211 55.7668C5.4154 55.7041 5.44326 55.6312 5.45318 55.5544C5.50645 55.3019 5.50643 55.3019 5.7576 55.3211H5.88243C5.88243 55.2316 5.88242 55.2396 5.82914 55.222C5.77587 55.2044 5.63429 55.1405 5.70432 55.0238C5.71753 54.9982 5.73627 54.9763 5.759 54.9596C5.78172 54.943 5.80781 54.9321 5.83523 54.9279C5.86264 54.9237 5.89065 54.9261 5.91704 54.9349C5.94343 54.9438 5.96751 54.959 5.98747 54.9791C6.04883 55.0264 6.09798 55.089 6.13041 55.1613C6.16285 55.2336 6.17755 55.3132 6.1732 55.393C6.13349 55.6099 6.13349 55.8328 6.1732 56.0498C6.18881 56.1207 6.18631 56.1947 6.166 56.2643C6.14569 56.3339 6.10825 56.3965 6.05748 56.4461C5.98593 56.5276 5.93265 56.5723 6.05748 56.6714C6.08168 56.705 6.09478 56.7459 6.09478 56.788C6.09478 56.8302 6.08168 56.8711 6.05748 56.9047C6.01333 56.9862 6.0575 57.0214 6.11991 57.0406C6.18233 57.0597 6.24475 57.0406 6.25236 56.9782C6.25236 56.7625 6.39393 56.5643 6.25236 56.339C6.22615 56.3021 6.20781 56.2599 6.19861 56.2149C6.18942 56.17 6.18959 56.1235 6.19907 56.0786C6.20866 56.0332 6.22712 55.9905 6.25334 55.953C6.27955 55.9156 6.31294 55.8844 6.35131 55.8613C6.37284 55.8605 6.39369 55.8532 6.41143 55.8404C6.42916 55.8275 6.443 55.8096 6.45133 55.7888C6.45966 55.7679 6.46214 55.7449 6.45844 55.7227C6.45474 55.7004 6.44504 55.6797 6.43047 55.6631C6.39798 55.6093 6.38072 55.547 6.38072 55.4833C6.38072 55.4196 6.39798 55.3573 6.43047 55.3035C6.49054 55.2197 6.53001 55.1215 6.54541 55.0179C6.5608 54.9142 6.55163 54.8081 6.51874 54.709C6.50097 54.6629 6.50097 54.6113 6.51874 54.5652C6.6778 54.1597 6.75904 53.7253 6.75776 53.2868C6.75776 53.1701 6.88257 53.127 6.95259 53.0167C6.78362 52.9272 6.64815 52.8185 6.78363 52.5932C6.82778 52.5213 6.78364 52.4494 6.71209 52.4126C6.64054 52.3759 6.6055 52.4126 6.57049 52.4126C6.49894 52.5725 6.26603 52.5213 6.24168 52.6555C6.24366 52.8119 6.27041 52.967 6.32084 53.1142C6.32995 53.1498 6.32995 53.1873 6.32084 53.2229C6.03617 53.4386 6.20516 53.7534 6.17928 54.0219C6.17832 54.1169 6.16344 54.2113 6.13515 54.3015C6.01946 54.5812 5.93114 54.6339 5.67844 54.5269C5.42574 54.4198 5.40294 54.3016 5.49276 54.0219C5.5664 53.7773 5.60536 53.5225 5.60843 53.266C5.58319 53.103 5.59589 52.9361 5.64546 52.7794C5.69503 52.6227 5.78002 52.481 5.89311 52.3663C5.91319 52.3451 5.92443 52.3164 5.92443 52.2864C5.92443 52.2565 5.91319 52.2277 5.89311 52.2065C5.78687 51.8796 5.78687 51.525 5.89311 51.1981C5.91667 51.0393 5.9314 50.8793 5.93725 50.7187C5.91749 50.4715 5.99072 50.226 6.14124 50.0348C6.22214 49.9278 6.26031 49.792 6.24776 49.6561C6.25441 49.4245 6.22461 49.1934 6.15949 48.972C6.15949 48.9001 6.08034 48.8122 6.08795 48.7643C6.10172 48.3603 6.07518 47.9559 6.00879 47.5578C6.00879 47.342 6.0088 47.1439 6.26606 47.0784C6.52333 47.0128 6.38175 46.8978 6.36348 46.7987C6.34957 46.7329 6.35474 46.6643 6.37835 46.6016C6.40196 46.5389 6.44292 46.4851 6.49593 46.4471C6.58066 46.3625 6.63448 46.2495 6.64812 46.1276C6.73892 45.7132 6.87586 45.3114 7.0561 44.9306C7.16742 44.672 7.24772 44.3998 7.29511 44.1204C7.33926 43.8599 7.44733 43.6074 7.48995 43.3453C7.60195 42.9106 7.66179 42.4629 7.66806 42.0126C7.66806 41.4996 7.57066 40.9867 7.52651 40.4721C7.49611 40.3179 7.49536 40.1588 7.52438 40.0043C7.55339 39.8498 7.61159 39.703 7.69547 39.5724C7.7458 39.4676 7.77199 39.3518 7.77199 39.2344C7.77199 39.117 7.7458 39.0012 7.69547 38.8964C7.64321 38.7732 7.62231 38.6379 7.63485 38.5037C7.64739 38.3695 7.69295 38.2411 7.76702 38.1309C7.83993 37.9917 7.885 37.8384 7.89946 37.6803C7.97452 37.199 8.08133 36.7238 8.21913 36.258C8.30811 36.0022 8.32658 35.7253 8.27241 35.459C8.2263 35.2664 8.25476 35.0624 8.35157 34.8917C8.4271 34.7526 8.46104 34.5928 8.44899 34.4331V33.0556C8.46257 32.9844 8.46257 32.9111 8.44899 32.8399C8.41301 32.7436 8.40304 32.6388 8.42024 32.537C8.43743 32.4352 8.4811 32.3403 8.54641 32.2629C8.58845 32.2109 8.62031 32.1507 8.64016 32.0857C8.66001 32.0207 8.6675 31.9522 8.66213 31.8842C8.64769 31.6483 8.66873 31.4117 8.72452 31.1827C8.78647 30.9317 8.78647 30.6682 8.72452 30.4172C8.70698 30.3222 8.70698 30.2245 8.72452 30.1295C8.75278 29.4808 8.70526 28.8309 8.58297 28.1943C8.58688 28.0599 8.55375 27.9273 8.4876 27.8122C8.42144 27.6971 8.32503 27.6046 8.20998 27.5456C8.12471 27.4909 8.05198 27.4173 7.99688 27.3298C7.71202 26.9181 7.3294 26.5919 6.88714 26.3837C6.26979 26.0686 5.67641 25.7043 5.11219 25.2938C4.68049 24.9678 4.30031 24.5726 3.98567 24.1225C3.93167 24.0638 3.89592 23.9894 3.88314 23.9089C3.87037 23.8284 3.88117 23.7458 3.91413 23.6719C3.94382 23.5941 3.95531 23.5099 3.94762 23.4265C3.93994 23.3431 3.91333 23.2629 3.87 23.1925C3.631 22.7243 3.34634 22.2927 3.14235 21.7973C3.11608 21.742 3.07609 21.6951 3.02663 21.6616C2.95281 21.5943 2.89338 21.5114 2.85219 21.4183C2.811 21.3252 2.78902 21.224 2.78766 21.1214C2.78442 20.9972 2.7575 20.8749 2.7085 20.7618C2.49539 20.3305 2.30878 19.8853 2.14982 19.429C2.10161 19.3451 2.06568 19.2541 2.04325 19.159C2.02498 18.9981 1.97627 18.8427 1.89993 18.7019C1.82359 18.5611 1.72119 18.4378 1.59876 18.3392C1.48437 18.2315 1.40369 18.09 1.36736 17.9333C1.25574 17.5722 1.03839 17.2574 0.746286 17.0336C0.613848 16.9346 0.498173 16.8003 0.355079 16.7012C0.211985 16.6021 0.116071 16.4854 0.248509 16.2873C0.272569 16.2518 0.285488 16.2094 0.285488 16.1658C0.285488 16.1223 0.272569 16.0799 0.248509 16.0444C0.222895 16.0186 0.201749 15.9883 0.186072 15.9549C0.113324 15.8555 0.0602024 15.742 0.0297468 15.6208C-0.000708671 15.4997 -0.00788042 15.3734 0.00870221 15.2493C0.0252848 15.1252 0.0652927 15.0058 0.126329 14.8982C0.187366 14.7905 0.268207 14.6966 0.364185 14.6221C0.529266 14.4273 0.71696 14.255 0.922866 14.1092C1.171 13.9206 1.1984 13.7767 1.10098 13.4252H1.03854C1.02027 13.4252 0.869597 13.6506 0.734115 13.5419C0.598632 13.4332 0.405283 13.3709 0.37027 13.1104C0.349123 12.8109 0.349123 12.5102 0.37027 12.2107C0.368968 12.1618 0.384647 12.1141 0.414404 12.0764C0.734081 11.8958 0.680824 11.4468 0.903076 11.1767C1.12533 10.9067 0.903081 10.8892 0.956361 10.7453C1.00964 10.6015 0.95637 10.3938 1.21363 10.3586C1.4709 10.3235 1.56831 10.1156 1.76316 10.0613C1.78684 10.0539 1.80746 10.0384 1.82179 10.0172C1.83613 9.9961 1.84336 9.97058 1.84233 9.94466C1.82939 9.85915 1.84317 9.77158 1.88158 9.69497C1.91999 9.61835 1.98095 9.55681 2.05542 9.5196C2.13458 9.5196 2.09959 9.35983 2.11786 9.27673C2.18027 8.93475 2.25941 8.83562 2.57452 8.80846C2.67046 8.80657 2.76276 8.76962 2.83556 8.70399C2.90835 8.63837 2.95712 8.54821 2.97339 8.44894C3.02667 8.20603 3.20476 8.07016 3.31893 7.87201C3.03427 7.66426 3.03427 7.66429 3.09669 7.30473C3.11874 7.16184 3.11874 7.01612 3.09669 6.87323C3.06128 6.60819 3.06128 6.33925 3.09669 6.07421C3.12697 5.90824 3.12448 5.7375 3.08939 5.57258C3.05431 5.40766 2.98737 5.2521 2.8927 5.11542C2.6537 4.79581 2.6887 4.57528 3.00837 4.3164C3.32805 4.05752 3.2748 4.07343 3.14997 3.74903C3.13153 3.71461 3.11669 3.67818 3.10579 3.64038C3.09007 3.60711 3.08589 3.56915 3.09395 3.53299C3.102 3.49683 3.12183 3.46478 3.14997 3.44228C3.17603 3.43765 3.20278 3.44016 3.2276 3.44969C3.25242 3.45922 3.27445 3.47543 3.29152 3.49661C3.36865 3.61552 3.465 3.71929 3.57621 3.80336C3.54663 3.68116 3.55785 3.55207 3.60798 3.4375C3.65812 3.32292 3.74415 3.22981 3.85174 3.17376C4.04659 3.01396 4.14401 2.74234 4.37539 2.64326C4.44694 2.64326 4.45453 2.51697 4.46366 2.44506C4.47279 2.37315 4.50781 2.2022 4.51694 2.08554C4.57022 1.56298 4.85491 1.25773 5.30702 1.2753C5.4486 1.2753 5.56429 1.27531 5.63584 1.10432C5.70739 0.933332 5.81392 0.97808 5.92048 0.987668C6.20817 1.00796 6.49357 0.921978 6.72728 0.744704C6.81161 0.690345 6.90087 0.64491 6.99371 0.608933C7.14358 0.555413 7.26971 0.446287 7.3484 0.302083C7.37221 0.24019 7.40806 0.184239 7.45367 0.137733C7.49928 0.0912276 7.55362 0.055182 7.61325 0.0320034C7.67355 0.00820179 7.73786 -0.00252241 7.80223 0.000498987C7.8666 0.00352038 7.92968 0.0202028 7.98773 0.04956C8.03794 0.0675643 8.08257 0.0995391 8.11688 0.142025C8.15118 0.18451 8.17391 0.235923 8.18261 0.290866C8.19041 0.345578 8.18373 0.401477 8.16333 0.452484C8.14293 0.503491 8.10956 0.547694 8.06689 0.58016C8.00736 0.647469 7.9386 0.705089 7.8629 0.751142C7.68479 0.823054 7.67719 0.931703 7.76548 1.09311L7.90708 1.37274C8.24225 1.08463 8.64898 0.903346 9.07922 0.850239C9.00006 0.706415 8.81281 0.75115 8.82194 0.58016C8.82456 0.468408 8.862 0.360608 8.92851 0.273309C8.94534 0.240599 8.97029 0.21325 9.0007 0.194207C9.03112 0.175164 9.06587 0.165141 9.10128 0.165141C9.1367 0.165141 9.17144 0.175164 9.20186 0.194207C9.23228 0.21325 9.25722 0.240599 9.27405 0.273309C9.37148 0.407545 9.27405 0.318027 9.27405 0.345194C9.27405 0.741508 9.5785 0.824649 9.88295 0.867796C9.99269 0.888247 10.0999 0.921497 10.2027 0.966893C10.2722 0.990126 10.3349 1.03168 10.3847 1.08764C10.4346 1.14361 10.4699 1.21212 10.4873 1.28652C10.6121 1.68284 10.6121 1.67323 10.9668 1.62848C11.3215 1.58374 11.5757 1.56611 11.8543 1.53895C11.9429 1.52767 12.0328 1.54289 12.1135 1.58274C12.1943 1.62259 12.2627 1.68545 12.311 1.76426C12.5332 2.08386 12.8605 1.98967 13.1985 1.93534C13.5364 1.881 13.503 1.74671 13.6872 1.7547C13.6339 1.7547 13.608 1.59489 13.6872 1.54694C13.7686 1.52556 13.8538 1.52556 13.9353 1.54694H15.0176C15.0798 1.53582 15.1437 1.54343 15.2019 1.56889C15.2601 1.59435 15.3102 1.63665 15.3464 1.69081C15.2049 1.90655 14.9826 1.85062 14.7253 1.89856C14.8643 1.9822 14.9851 2.09543 15.08 2.23097C15.1057 2.27033 15.1403 2.30239 15.1807 2.32441C15.221 2.34643 15.2659 2.35769 15.3114 2.35718C15.5166 2.39472 15.7127 2.47452 15.8883 2.59205C16.0695 2.67373 16.2181 2.81895 16.3086 3.00287C16.3991 3.1868 16.426 3.39807 16.3846 3.60048H16.4562C16.7134 3.41191 16.9129 3.54615 17.1656 3.66281C17.4625 3.82566 17.7299 4.04196 17.9556 4.30197C18.0301 4.36788 18.0912 4.44883 18.1354 4.53996C18.1796 4.63108 18.2059 4.73058 18.2129 4.83257C18.2129 4.94123 18.2128 5.04832 18.3544 5.04832C18.7624 5.04832 18.9633 5.44462 19.2419 5.71469C19.3152 5.80845 19.4197 5.86954 19.5342 5.88567C19.8773 5.95314 20.2293 5.95314 20.5724 5.88567C21.018 5.80929 21.4753 5.88491 21.877 6.10142C22.3038 6.28296 22.7161 6.49992 23.11 6.75024C23.2759 6.92755 23.4574 7.08805 23.6519 7.22963C23.8409 7.32776 24.0013 7.47713 24.1167 7.6623C24.2321 7.84748 24.2981 8.06171 24.308 8.28273C24.3772 8.607 24.4631 8.92704 24.5653 9.24152C24.5801 9.33562 24.6207 9.4232 24.682 9.49356C24.7434 9.56391 24.8229 9.61401 24.9109 9.63781C25.089 9.63781 25.1057 9.79763 25.0631 9.97022C25.0302 10.1981 24.9344 10.4109 24.7876 10.5823C24.7462 10.6417 24.7162 10.709 24.6993 10.7805C24.5065 10.8827 24.3416 11.0344 24.2197 11.2215C24.4861 11.2215 24.6277 11.132 24.6551 10.8699C24.6323 10.8315 24.6597 10.798 24.6764 10.7597ZM7.59346 68.556C7.3712 68.3755 7.07894 68.2365 7.12309 67.8274C6.90997 68.1965 7.32709 68.3579 7.30882 68.6647C7.41538 68.6104 7.49451 68.5385 7.60107 68.556C7.6985 68.7894 7.94663 68.7814 8.10647 68.9348C8.26631 69.0882 8.22217 68.9348 8.23892 68.8261C8.25566 68.7175 8.4079 68.5384 8.42465 68.3579C8.42433 68.3188 8.4376 68.2811 8.462 68.2516C8.4864 68.2222 8.52024 68.2032 8.5571 68.1981C8.64539 68.1981 8.65449 68.2875 8.66362 68.3579C8.72157 68.5698 8.72157 68.7947 8.66362 69.0067C8.61034 69.1153 8.66364 69.1425 8.75193 69.1505C8.84022 69.1585 8.87674 69.1505 8.86761 69.0339L8.81432 68.7143C8.81432 68.4442 8.81435 68.3946 9.00921 68.2732C9.0948 68.219 9.18379 68.171 9.27559 68.1294C9.3019 68.1184 9.3236 68.0978 9.33672 68.0714C9.34984 68.045 9.35352 68.0145 9.34713 67.9856C9.34713 67.9136 9.25886 67.9136 9.20558 67.9232L8.98333 67.9856C8.94534 68.0027 8.90441 68.0115 8.86306 68.0115C8.8217 68.0115 8.78077 68.0027 8.74278 67.9856C8.7051 67.9695 8.67087 67.9456 8.64211 67.9154C8.61335 67.8852 8.59066 67.8493 8.57535 67.8098C8.53592 67.7228 8.52082 67.6258 8.53187 67.5302C8.54292 67.4345 8.57964 67.3442 8.63774 67.2696C8.63774 67.2696 8.7626 67.2696 8.75347 67.1705C8.74693 67.1351 8.7321 67.102 8.71031 67.0741C8.68851 67.0462 8.66044 67.0244 8.62864 67.0108C8.48707 66.9389 8.38963 67.0108 8.37136 67.2185C8.3531 67.4263 8.24651 67.9121 8.22976 68.2716C8.21302 68.6312 8.10497 68.6583 7.84771 68.6136L7.59346 68.556ZM7.74569 1.86335C7.40775 2.16059 7.39102 2.314 7.63002 2.68315C7.67374 2.75188 7.71239 2.82401 7.74569 2.8989C7.83398 3.0587 7.94056 3.0587 8.03038 2.8989C8.08448 2.81017 8.11321 2.70706 8.11321 2.60171C8.11321 2.49635 8.08448 2.39315 8.03038 2.30441C7.94056 2.16858 7.84008 2.00877 7.75331 1.86335H7.74569ZM7.2403 67.6835C7.38919 67.7172 7.54454 67.6984 7.68219 67.6299C7.81983 67.5614 7.93206 67.4471 8.00143 67.3047C8.01054 67.2692 8.01054 67.2317 8.00143 67.1961C7.98866 67.1631 7.96699 67.1348 7.93904 67.1146H7.8675C7.7153 67.3622 7.50086 67.5607 7.24791 67.6884L7.2403 67.6835ZM6.85062 66.7838C6.92217 66.8829 6.96628 67.1034 7.08197 67.0171C7.27971 66.8993 7.50313 66.8371 7.7305 66.8366C7.40169 66.5841 7.14439 66.9628 6.85211 66.755L6.85062 66.7838ZM5.76829 58.0777C5.86571 57.9514 6.15035 58.0777 6.07271 57.7453C6.07271 57.5855 5.92049 57.6287 5.79718 57.6191C5.82343 57.7634 5.81453 57.9124 5.77131 58.0521L5.76829 58.0777Z" fill="white"/>
</svg>
