<svg width="25" height="24" viewBox="0 0 25 24" fill="none" xmlns="http://www.w3.org/2000/svg">
    <path d="M9.65605 19.2998C11.7998 19.2996 13.8822 18.5842 15.5735 17.267L21.9556 23.6491C22.1806 23.8741 22.4858 24.0005 22.804 24.0005C23.1223 24.0005 23.4275 23.8741 23.6525 23.6491C23.8775 23.4241 24.0039 23.1189 24.0039 22.8007C24.0039 22.4824 23.8775 22.1772 23.6525 21.9522L17.2736 15.5694C18.6116 13.8471 19.3267 11.7223 19.3023 9.54152C19.2779 7.36072 18.5154 5.25251 17.1392 3.56059C15.763 1.86867 13.8543 0.692848 11.7242 0.224821C9.59403 -0.243205 7.36818 0.0241716 5.4095 0.983359C3.45082 1.94255 1.87483 3.53697 0.938492 5.50667C0.00214957 7.47638 -0.239321 9.70519 0.253447 11.8297C0.746216 13.9543 1.94416 15.8492 3.65197 17.2056C5.35978 18.562 7.47672 19.2999 9.65765 19.299L9.65605 19.2998ZM4.52864 4.52288C5.54285 3.5086 6.83505 2.81784 8.24183 2.53797C9.64862 2.2581 11.1068 2.40169 12.432 2.95056C13.7572 3.49944 14.8898 4.42896 15.6867 5.62157C16.4836 6.81419 16.909 8.21633 16.909 9.65069C16.909 11.085 16.4836 12.4872 15.6867 13.6798C14.8898 14.8724 13.7572 15.8019 12.432 16.3508C11.1068 16.8997 9.64862 17.0433 8.24183 16.7634C6.83505 16.4835 5.54285 15.7928 4.52864 14.7785C3.16877 13.4284 2.40085 11.5935 2.3938 9.67726C2.38675 7.76104 3.14115 5.92049 4.49106 4.56046L4.52864 4.52288Z" fill="#001560"/>
</svg>
