<svg width="17" height="17" viewBox="0 0 17 17" fill="none" xmlns="http://www.w3.org/2000/svg">
    <path d="M12.1183 13.6208C10.671 14.8443 8.83076 15.4579 6.9652 15.3389C5.09964 15.22 3.34614 14.3774 2.05507 12.9794C0.763996 11.5814 0.0304245 9.73101 0.00092535 7.79791C-0.0285738 5.86481 0.648171 3.99137 1.89594 2.55193C3.14372 1.11248 4.87063 0.213022 6.73164 0.0332695C8.59264 -0.146483 10.4507 0.406708 11.9345 1.58231C13.4184 2.75792 14.4188 4.46936 14.7358 6.37469C15.0528 8.28001 14.6631 10.2389 13.6446 11.86L17 15.3307L15.3811 17L12.1183 13.6208ZM1.74341 7.681C1.74321 8.84251 2.07602 9.97798 2.69976 10.9438C3.32349 11.9097 4.21012 12.6625 5.24752 13.1071C6.28491 13.5516 7.42647 13.668 8.52782 13.4415C9.62916 13.2149 10.6408 12.6556 11.4348 11.8343C12.2289 11.013 12.7696 9.9666 12.9886 8.8274C13.2076 7.68821 13.0951 6.50741 12.6653 5.43436C12.2355 4.36131 11.5077 3.44421 10.5739 2.79904C9.64017 2.15387 8.54242 1.80962 7.41951 1.80983C5.91469 1.81175 4.47203 2.43094 3.40796 3.53158C2.34389 4.63223 1.74527 6.12446 1.74341 7.681Z" fill="white"/>
</svg>
