<svg width="26" height="26" viewBox="0 0 26 26" fill="none" xmlns="http://www.w3.org/2000/svg">
    <path d="M19 1H7C3.68629 1 1 3.68629 1 7V19C1 22.3137 3.68629 25 7 25H19C22.3137 25 25 22.3137 25 19V7C25 3.68629 22.3137 1 19 1Z" stroke="#001560" stroke-linecap="round" stroke-linejoin="round"/>
    <path d="M8.5 11C9.88071 11 11 9.88071 11 8.5C11 7.11929 9.88071 6 8.5 6C7.11929 6 6 7.11929 6 8.5C6 9.88071 7.11929 11 8.5 11Z" stroke="#001560" stroke-linecap="round" stroke-linejoin="round"/>
    <path d="M24.623 15.874L18.166 9.41699L3.95996 23.623" stroke="#001560" stroke-linecap="round" stroke-linejoin="round"/>
</svg>
