<svg width="21" height="21" viewBox="0 0 21 21" fill="none" xmlns="http://www.w3.org/2000/svg">
    <path fill-rule="evenodd" clip-rule="evenodd" d="M10.6854 1.43035L3.90978 8.768C3.78392 8.91385 3.71488 9.1002 3.71533 9.29284C3.71579 9.48549 3.7857 9.67151 3.91225 9.81676L8.69036 9.82294V19.7349C8.69036 20.4181 9.23266 20.9702 9.90342 20.9702H12.3308C12.4916 20.9689 12.6506 20.9359 12.7986 20.8731C12.9466 20.8103 13.0808 20.7189 13.1935 20.6042C13.3062 20.4895 13.3951 20.3536 13.4553 20.2045C13.5154 20.0553 13.5455 19.8957 13.5438 19.7349V9.82788L18.2515 9.83406C18.3762 9.68777 18.4443 9.5016 18.4434 9.30938C18.4425 9.11715 18.3727 8.93163 18.2466 8.78653L11.6291 1.43159C11.5705 1.36397 11.4981 1.30971 11.4168 1.27249C11.3354 1.23526 11.247 1.21594 11.1575 1.21582C11.0681 1.2157 10.9796 1.2348 10.8981 1.27181C10.8167 1.30882 10.7441 1.36288 10.6854 1.43035Z" fill="#5FE90A"/>
</svg>
