<svg width="18" height="18" viewBox="0 0 18 18" fill="none" xmlns="http://www.w3.org/2000/svg">
    <path d="M11.4888 0.299805V3.3378H14.5268L11.4888 0.299805Z" fill="#808081" fill-opacity="0.69"/>
    <path d="M5.97081 14.948V8.148C5.97015 8.01297 5.99618 7.87915 6.04739 7.75421C6.09861 7.62928 6.17401 7.51569 6.26925 7.41998C6.3645 7.32427 6.47772 7.24832 6.6024 7.1965C6.72709 7.14468 6.86078 7.118 6.99581 7.118H14.8268V4.363H10.9758C10.8398 4.363 10.7093 4.30895 10.6131 4.21275C10.5169 4.11654 10.4628 3.98606 10.4628 3.85V0H2.22081C1.65349 0.00079364 1.10963 0.226512 0.708479 0.627668C0.307323 1.02882 0.0816042 1.57268 0.0808105 2.14L0.0808105 15.36C0.0816042 15.9273 0.307323 16.4712 0.708479 16.8723C1.10963 17.2735 1.65349 17.4992 2.22081 17.5H12.6868C13.1472 17.4993 13.5951 17.3504 13.9643 17.0754C14.3335 16.8004 14.6043 16.4139 14.7368 15.973H6.99581C6.86121 15.973 6.72792 15.9465 6.60356 15.895C6.4792 15.8435 6.36621 15.768 6.27103 15.6728C6.17585 15.5776 6.10035 15.4646 6.04883 15.3403C5.99732 15.2159 5.97081 15.0826 5.97081 14.948Z" fill="#808081" fill-opacity="0.69"/>
    <path d="M6.99585 8.14258V14.9426H17.5758V8.14258H6.99585ZM9.17084 12.7616H10.0908C10.1013 12.7616 10.1118 12.7595 10.1215 12.7555C10.1312 12.7515 10.14 12.7456 10.1474 12.7381C10.1548 12.7307 10.1607 12.7219 10.1647 12.7122C10.1688 12.7025 10.1708 12.6921 10.1708 12.6816V12.0576H9.98485C9.85284 12.0517 9.72817 11.9952 9.63683 11.8997C9.54548 11.8043 9.49449 11.6772 9.49449 11.5451C9.49449 11.4129 9.54548 11.2859 9.63683 11.1904C9.72817 11.095 9.85284 11.0384 9.98485 11.0326H10.6848C10.8209 11.0326 10.9514 11.0866 11.0476 11.1828C11.1438 11.279 11.1978 11.4095 11.1978 11.5456V12.6826C11.1976 12.9756 11.0811 13.2565 10.8739 13.4636C10.6667 13.6708 10.3858 13.7873 10.0928 13.7876H9.17284C8.87985 13.7873 8.59896 13.6708 8.39178 13.4636C8.18461 13.2565 8.06811 12.9756 8.06784 12.6826V10.4096C8.06811 10.1166 8.18461 9.8357 8.39178 9.62852C8.59896 9.42135 8.87985 9.30485 9.17284 9.30458H10.6858C10.8178 9.31041 10.9425 9.36696 11.0339 9.46243C11.1252 9.55791 11.1762 9.68494 11.1762 9.81708C11.1762 9.94921 11.1252 10.0762 11.0339 10.1717C10.9425 10.2672 10.8178 10.3237 10.6858 10.3296H9.17284C9.15162 10.3296 9.13127 10.338 9.11627 10.353C9.10127 10.368 9.09285 10.3884 9.09285 10.4096V12.6826C9.0931 12.7033 9.10136 12.7231 9.11591 12.7378C9.13045 12.7525 9.15014 12.7611 9.17084 12.7616ZM12.8848 13.2746C12.879 13.4066 12.8225 13.5313 12.727 13.6226C12.6315 13.714 12.5045 13.7649 12.3723 13.7649C12.2402 13.7649 12.1132 13.714 12.0177 13.6226C11.9222 13.5313 11.8657 13.4066 11.8598 13.2746V9.81657C11.8657 9.68457 11.9222 9.5599 12.0177 9.46855C12.1132 9.3772 12.2402 9.32622 12.3723 9.32622C12.5045 9.32622 12.6315 9.3772 12.727 9.46855C12.8225 9.5599 12.879 9.68457 12.8848 9.81657V13.2746ZM16.1778 10.3286H14.5858V11.0286H15.5408C15.6729 11.0344 15.7975 11.091 15.8889 11.1864C15.9802 11.2819 16.0312 11.4089 16.0312 11.5411C16.0312 11.6732 15.9802 11.8002 15.8889 11.8957C15.7975 11.9912 15.6729 12.0477 15.5408 12.0536H14.5858V13.2696C14.58 13.4016 14.5235 13.5263 14.428 13.6176C14.3325 13.7089 14.2055 13.7599 14.0733 13.7599C13.9412 13.7599 13.8142 13.7089 13.7187 13.6176C13.6232 13.5263 13.5667 13.4016 13.5608 13.2696V9.81158C13.5608 9.67553 13.6149 9.54504 13.7111 9.44884C13.8073 9.35263 13.9378 9.29858 14.0738 9.29858H16.1758C16.3078 9.30442 16.4325 9.36096 16.5239 9.45644C16.6152 9.55191 16.6662 9.67895 16.6662 9.81108C16.6662 9.94322 16.6152 10.0703 16.5239 10.1657C16.4325 10.2612 16.3078 10.3177 16.1758 10.3236L16.1778 10.3286Z" fill="#808081" fill-opacity="0.69"/>
</svg>
