<svg width="32" height="32" viewBox="0 0 32 32" fill="none" xmlns="http://www.w3.org/2000/svg">
<mask id="mask0" mask-type="alpha" maskUnits="userSpaceOnUse" x="0" y="0" width="32" height="32">
<circle cx="16" cy="16" r="16" fill="#C4C4C4"/>
</mask>
<g mask="url(#mask0)">
<path d="M-8.88867 26.0488H40.5321V29.0248H-8.88867V26.0488Z" fill="white"/>
<path d="M-8.88867 21.7637H40.5321V24.7397H-8.88867V21.7637Z" fill="white"/>
<path d="M-8.88867 16.9268H40.5321V19.9028H-8.88867V16.9268Z" fill="white"/>
<path d="M-8.88867 12.0977H40.5321V15.0737H-8.88867V12.0977Z" fill="white"/>
<path d="M-8.88867 7.25879H40.5321V10.2348H-8.88867V7.25879Z" fill="white"/>
<path d="M-8.88867 2.97559H40.5321V5.95159H-8.88867V2.97559Z" fill="white"/>
<path d="M-8.88867 29.0244H40.5321V32.0004H-8.88867V29.0244Z" fill="#BD3D44"/>
<path d="M-8.88867 24.1855H40.5321V27.1615H-8.88867V24.1855Z" fill="#BD3D44"/>
<path d="M-8.88867 19.3457H40.5321V22.3217H-8.88867V19.3457Z" fill="#BD3D44"/>
<path d="M-8.88867 14.5176H40.5321V17.4936H-8.88867V14.5176Z" fill="#BD3D44"/>
<path d="M-8.88867 9.67676H40.5321V12.6528H-8.88867V9.67676Z" fill="#BD3D44"/>
<path d="M-8.88867 4.83691H40.5321V7.81291H-8.88867V4.83691Z" fill="#BD3D44"/>
<path d="M-8.88867 0H40.5321V2.976H-8.88867V0Z" fill="#BD3D44"/>
<path d="M-8.88867 0H16.2953V17.5573H-8.88867V0Z" fill="#192F5D"/>
<path d="M0.635052 2.78388L1.23238 2.34655L1.81905 2.78388L1.59505 2.07988L2.19239 1.65322H1.45638L1.23238 0.949219L0.997719 1.65322H0.261719L0.859052 2.07988L0.635052 2.78388Z" fill="white"/>
<path d="M1.23238 4.41699L0.997719 5.12099H0.261719L0.859052 5.54766L0.635052 6.25166L1.23238 5.81432L1.81905 6.25166L1.59505 5.54766L2.19239 5.12099H1.45638L1.23238 4.41699Z" fill="white"/>
<path d="M1.23238 7.88379L0.997719 8.58779H0.261719L0.859052 9.01445L0.635052 9.71845L1.23238 9.28112L1.81905 9.71845L1.59505 9.01445L2.19239 8.58779H1.45638L1.23238 7.88379Z" fill="white"/>
<path d="M1.23238 11.3506L0.997719 12.0439H0.261719L0.859052 12.4813L0.635052 13.1853L1.23238 12.7479L1.81905 13.1853L1.59505 12.4813L2.19239 12.0439H1.45638L1.23238 11.3506Z" fill="white"/>
<path d="M1.45638 15.5097L1.23238 14.8164L0.997719 15.5097H0.261719L0.859052 15.9471L0.635052 16.6511L1.23238 16.2137L1.81905 16.6511L1.59505 15.9471L2.19239 15.5097H1.45638Z" fill="white"/>
<path d="M4.51892 2.78388L5.11625 2.34655L5.71358 2.78388L5.47892 2.07988L6.07625 1.65322H5.34025L5.11625 0.949219L4.88158 1.65322H4.15625L4.74292 2.07988L4.51892 2.78388Z" fill="white"/>
<path d="M5.11625 4.41699L4.88158 5.12099H4.15625L4.74292 5.54766L4.51892 6.25166L5.11625 5.81432L5.71358 6.25166L5.47892 5.54766L6.07625 5.12099H5.34025L5.11625 4.41699Z" fill="white"/>
<path d="M5.11625 7.88379L4.88158 8.58779H4.15625L4.74292 9.01445L4.51892 9.71845L5.11625 9.28112L5.71358 9.71845L5.47892 9.01445L6.07625 8.58779H5.34025L5.11625 7.88379Z" fill="white"/>
<path d="M5.11625 11.3506L4.88158 12.0439H4.15625L4.74292 12.4813L4.51892 13.1853L5.11625 12.7479L5.71358 13.1853L5.47892 12.4813L6.07625 12.0439H5.34025L5.11625 11.3506Z" fill="white"/>
<path d="M5.34025 15.5097L5.11625 14.8164L4.88158 15.5097H4.15625L4.74292 15.9471L4.51892 16.6511L5.11625 16.2137L5.71358 16.6511L5.47892 15.9471L6.07625 15.5097H5.34025Z" fill="white"/>
<path d="M8.4027 2.78388L9.00004 2.34655L9.59737 2.78388L9.36271 2.07988L9.96004 1.65322H9.22404L9.00004 0.949219L8.77604 1.65322H8.04004L8.63737 2.07988L8.4027 2.78388Z" fill="white"/>
<path d="M9.00004 4.41699L8.77604 5.12099H8.04004L8.63737 5.54766L8.4027 6.25166L9.00004 5.81432L9.59737 6.25166L9.36271 5.54766L9.96004 5.12099H9.22404L9.00004 4.41699Z" fill="white"/>
<path d="M9.00004 7.88379L8.77604 8.58779H8.04004L8.63737 9.01445L8.4027 9.71845L9.00004 9.28112L9.59737 9.71845L9.36271 9.01445L9.96004 8.58779H9.22404L9.00004 7.88379Z" fill="white"/>
<path d="M9.00004 11.3506L8.77604 12.0439H8.04004L8.63737 12.4813L8.4027 13.1853L9.00004 12.7479L9.59737 13.1853L9.36271 12.4813L9.96004 12.0439H9.22404L9.00004 11.3506Z" fill="white"/>
<path d="M9.22404 15.5097L9.00004 14.8164L8.77604 15.5097H8.04004L8.63737 15.9471L8.4027 16.6511L9.00004 16.2137L9.59737 16.6511L9.36271 15.9471L9.96004 15.5097H9.22404Z" fill="white"/>
<path d="M12.2972 2.78388L12.8838 2.34655L13.4812 2.78388L13.2572 2.07988L13.8545 1.65322H13.1185L12.8838 0.949219L12.6598 1.65322H11.9238L12.5212 2.07988L12.2972 2.78388Z" fill="white"/>
<path d="M12.8838 4.41699L12.6598 5.12099H11.9238L12.5212 5.54766L12.2972 6.25166L12.8838 5.81432L13.4812 6.25166L13.2572 5.54766L13.8545 5.12099H13.1185L12.8838 4.41699Z" fill="white"/>
<path d="M12.8838 7.88379L12.6598 8.58779H11.9238L12.5212 9.01445L12.2972 9.71845L12.8838 9.28112L13.4812 9.71845L13.2572 9.01445L13.8545 8.58779H13.1185L12.8838 7.88379Z" fill="white"/>
<path d="M12.8838 11.3506L12.6598 12.0439H11.9238L12.5212 12.4813L12.2972 13.1853L12.8838 12.7479L13.4812 13.1853L13.2572 12.4813L13.8545 12.0439H13.1185L12.8838 11.3506Z" fill="white"/>
<path d="M13.1185 15.5097L12.8838 14.8164L12.6598 15.5097H11.9238L12.5212 15.9471L12.2972 16.6511L12.8838 16.2137L13.4812 16.6511L13.2572 15.9471L13.8545 15.5097H13.1185Z" fill="white"/>
<path d="M-1.30343 4.69209L-0.706092 4.25476L-0.119425 4.69209L-0.343425 3.98809L0.253908 3.55076H-0.482092L-0.706092 2.85742L-0.940758 3.55076H-1.67676L-1.07943 3.98809L-1.30343 4.69209Z" fill="white"/>
<path d="M-0.706092 6.32422L-0.940758 7.01755H-1.67676L-1.07943 7.45489L-1.30343 8.14822L-0.706092 7.72155L-0.119425 8.14822L-0.343425 7.45489L0.253908 7.01755H-0.482092L-0.706092 6.32422Z" fill="white"/>
<path d="M-0.706092 9.79199L-0.940758 10.4853H-1.67676L-1.07943 10.9227L-1.30343 11.616L-0.706092 11.1893L-0.119425 11.616L-0.343425 10.9227L0.253908 10.4853H-0.482092L-0.706092 9.79199Z" fill="white"/>
<path d="M-0.706092 13.2588L-0.940758 13.9521H-1.67676L-1.07943 14.3895L-1.30343 15.0828L-0.706092 14.6561L-0.119425 15.0828L-0.343425 14.3895L0.253908 13.9521H-0.482092L-0.706092 13.2588Z" fill="white"/>
<path d="M2.57841 4.69209L3.17575 4.25476L3.77308 4.69209L3.53841 3.98809L4.13574 3.55076H3.39975L3.17575 2.85742L2.95175 3.55076H2.20508L2.80241 3.98809L2.57841 4.69209Z" fill="white"/>
<path d="M3.17575 6.32422L2.95175 7.01755H2.20508L2.80241 7.45489L2.57841 8.14822L3.17575 7.72155L3.77308 8.14822L3.53841 7.45489L4.13574 7.01755H3.39975L3.17575 6.32422Z" fill="white"/>
<path d="M3.17575 9.79199L2.95175 10.4853H2.20508L2.80241 10.9227L2.57841 11.616L3.17575 11.1893L3.77308 11.616L3.53841 10.9227L4.13574 10.4853H3.39975L3.17575 9.79199Z" fill="white"/>
<path d="M3.17575 13.2588L2.95175 13.9521H2.20508L2.80241 14.3895L2.57841 15.0828L3.17575 14.6561L3.77308 15.0828L3.53841 14.3895L4.13574 13.9521H3.39975L3.17575 13.2588Z" fill="white"/>
<path d="M6.4613 4.69209L7.05863 4.25476L7.65597 4.69209L7.4213 3.98809L8.01863 3.55076H7.28263L7.05863 2.85742L6.83463 3.55076H6.09863L6.69597 3.98809L6.4613 4.69209Z" fill="white"/>
<path d="M7.05863 6.32422L6.83463 7.01755H6.09863L6.69597 7.45489L6.4613 8.14822L7.05863 7.72155L7.65597 8.14822L7.4213 7.45489L8.01863 7.01755H7.28263L7.05863 6.32422Z" fill="white"/>
<path d="M7.05863 9.79199L6.83463 10.4853H6.09863L6.69597 10.9227L6.4613 11.616L7.05863 11.1893L7.65597 11.616L7.4213 10.9227L8.01863 10.4853H7.28263L7.05863 9.79199Z" fill="white"/>
<path d="M7.05863 13.2588L6.83463 13.9521H6.09863L6.69597 14.3895L6.4613 15.0828L7.05863 14.6561L7.65597 15.0828L7.4213 14.3895L8.01863 13.9521H7.28263L7.05863 13.2588Z" fill="white"/>
<path d="M10.3431 4.69209L10.9405 4.25476L11.5378 4.69209L11.3138 3.98809L11.9005 3.55076H11.1645L10.9405 2.85742L10.7165 3.55076H9.98047L10.5778 3.98809L10.3431 4.69209Z" fill="white"/>
<path d="M10.9405 6.32422L10.7165 7.01755H9.98047L10.5778 7.45489L10.3431 8.14822L10.9405 7.72155L11.5378 8.14822L11.3138 7.45489L11.9005 7.01755H11.1645L10.9405 6.32422Z" fill="white"/>
<path d="M10.9405 9.79199L10.7165 10.4853H9.98047L10.5778 10.9227L10.3431 11.616L10.9405 11.1893L11.5378 11.616L11.3138 10.9227L11.9005 10.4853H11.1645L10.9405 9.79199Z" fill="white"/>
<path d="M10.9405 13.2588L10.7165 13.9521H9.98047L10.5778 14.3895L10.3431 15.0828L10.9405 14.6561L11.5378 15.0828L11.3138 14.3895L11.9005 13.9521H11.1645L10.9405 13.2588Z" fill="white"/>
</g>
</svg>
