<svg width="25" height="18" viewBox="0 0 25 18" fill="none" xmlns="http://www.w3.org/2000/svg">
    <path d="M23.9819 17.356C23.9009 10.684 18.1499 5.251 10.9939 5.008V1.5C10.9939 1.10218 10.8359 0.720643 10.5546 0.439339C10.2733 0.158034 9.89174 0 9.49391 0C9.11906 0.000742603 8.75845 0.1437 8.48491 0.400002C8.48491 0.400002 2.16491 6.253 0.346912 8.077C0.123282 8.33229 0 8.66011 0 8.9995C0 9.33888 0.123282 9.66671 0.346912 9.922C2.16491 11.747 8.48491 17.6 8.48491 17.6C8.75845 17.8563 9.11906 17.9993 9.49391 18C9.89174 18 10.2733 17.842 10.5546 17.5607C10.8359 17.2794 10.9939 16.8978 10.9939 16.5V13C18.1879 13.1 22.9839 15.372 22.9839 17.5C22.9839 17.6326 23.0366 17.7598 23.1304 17.8536C23.2241 17.9473 23.3513 18 23.4839 18H23.5019C23.5799 18 23.6568 17.9818 23.7265 17.9468C23.7962 17.9118 23.8567 17.861 23.9033 17.7984C23.9498 17.7358 23.9811 17.6632 23.9946 17.5864C24.0081 17.5096 24.0034 17.4307 23.9809 17.356H23.9819Z" fill="#001560"/>
</svg>
