<svg width="25" height="18" viewBox="0 0 25 18" fill="none" xmlns="http://www.w3.org/2000/svg">
    <path d="M8.48491 17.6L8.82458 17.2331L8.82437 17.2329L8.82352 17.2321L8.8201 17.2289L8.80654 17.2164L8.75338 17.1671L8.54985 16.9784C8.3736 16.8149 8.11975 16.5792 7.80945 16.2908C7.18881 15.7138 6.34242 14.9255 5.43932 14.0803C3.63818 12.3947 1.62125 10.4916 0.713656 9.58167C0.575817 9.41918 0.5 9.21289 0.5 8.9995C0.5 8.78612 0.575803 8.57986 0.71362 8.41737C1.62129 7.50781 3.63822 5.60506 5.4393 3.91958C6.34241 3.07444 7.1888 2.28621 7.80944 1.70923C8.11975 1.42076 8.37359 1.18512 8.54984 1.02162L8.75338 0.832892L8.80654 0.783629L8.8201 0.771066L8.82352 0.7679L8.82437 0.767108L8.82458 0.766912L8.48491 0.400002L8.82466 0.766855L8.82678 0.764866C9.00779 0.595264 9.24637 0.500617 9.49441 0.5C9.75945 0.500131 10.0136 0.605473 10.201 0.792892C10.3886 0.980428 10.4939 1.23478 10.4939 1.5V5.008V5.49131L10.9769 5.50772C17.7166 5.73658 23.1107 10.7151 23.4643 16.856H23.3767C23.217 16.378 22.8885 15.9364 22.4595 15.5442C21.8389 14.9768 20.9564 14.4626 19.8737 14.0258C17.705 13.1509 14.6435 12.5507 11.0009 12.5L10.4939 12.493V13V16.5C10.4939 16.7652 10.3886 17.0196 10.201 17.2071C10.0135 17.3946 9.75925 17.5 9.4941 17.5C9.24618 17.4993 9.00772 17.4047 8.82679 17.2351L8.82465 17.2332L8.48491 17.6ZM23.4839 17.5C23.4839 17.4786 23.4836 17.4573 23.4829 17.436L23.5021 17.5H23.5019H23.4839Z" stroke="#001560"/>
</svg>
