<svg width="16" height="16" viewBox="0 0 16 16" fill="none" xmlns="http://www.w3.org/2000/svg">
    <path d="M5.72385 6.67928V6.38965H0.265625V6.67928C0.280637 7.39315 0.574763 8.07271 1.08494 8.57226C1.59511 9.07182 2.28071 9.35159 2.99474 9.35159C3.70877 9.35159 4.39437 9.07182 4.90454 8.57226C5.41472 8.07271 5.70884 7.39315 5.72385 6.67928Z" fill="white"/>
    <path d="M10.2545 6.39062V6.68026C10.2469 7.04348 10.3118 7.40457 10.4455 7.74237C10.5793 8.08017 10.7791 8.38787 11.0332 8.64745C11.2874 8.90703 11.5908 9.11327 11.9258 9.25406C12.2607 9.39485 12.6203 9.46736 12.9836 9.46736C13.3469 9.46736 13.7066 9.39485 14.0415 9.25406C14.3764 9.11327 14.6798 8.90703 14.934 8.64745C15.1882 8.38787 15.388 8.08017 15.5217 7.74237C15.6554 7.40457 15.7204 7.04348 15.7127 6.68026V6.39062H10.2545Z" fill="white"/>
    <path d="M2.99445 3.75699L3.61473 5.48388H4.58014L3.64248 2.87001H7.08782V10.8721H8.89797V2.87001H12.3397L11.402 5.48388H12.3674L12.9865 3.75699L13.6056 5.48388H14.571L13.3003 1.96494H8.89436V0.859532C8.88237 0.627573 8.78179 0.409069 8.61337 0.249123C8.44495 0.0891771 8.22154 0 7.98928 0C7.75701 0 7.53361 0.0891771 7.36518 0.249123C7.19676 0.409069 7.09618 0.627573 7.0842 0.859532V1.96494H2.67586L1.41357 5.48388H2.37899L2.99445 3.75699Z" fill="white"/>
    <path d="M2.70703 14.041H13.2735V15.3998H2.70703V14.041Z" fill="white"/>
    <path d="M3.60938 11.7773H12.3645V13.1362H3.60938V11.7773Z" fill="white"/>
</svg>
