<svg width="143" height="143" viewBox="0 0 143 143" fill="none" xmlns="http://www.w3.org/2000/svg">
    <path opacity="0.266" d="M141.5 71.5C141.5 110.16 110.16 141.5 71.5 141.5C32.8401 141.5 1.5 110.16 1.5 71.5C1.5 32.8401 32.8401 1.5 71.5 1.5C110.16 1.5 141.5 32.8401 141.5 71.5Z" stroke="#12276C" stroke-width="3"/>
    <path opacity="0.266" d="M103.479 39.0723C103.182 38.7761 102.806 38.5733 102.396 38.4891C101.985 38.4048 101.559 38.4428 101.171 38.5983L32.3966 66.1073C32.0114 66.2613 31.6792 66.5239 31.4405 66.8632C31.2018 67.2025 31.0669 67.6039 31.0521 68.0185C31.0374 68.4331 31.1435 68.8431 31.3575 69.1985C31.5715 69.5539 31.8843 69.8394 32.2576 70.0203L59.3776 83.1733L72.5306 110.293C72.7056 110.654 72.9783 110.958 73.3178 111.171C73.6572 111.385 74.0497 111.498 74.4506 111.499H74.5266C74.9411 111.485 75.3424 111.35 75.6817 111.111C76.021 110.872 76.2836 110.54 76.4376 110.155L103.951 41.3803C104.106 40.9916 104.145 40.5658 104.061 40.1555C103.977 39.7453 103.774 39.3686 103.479 39.0723ZM38.4836 68.2833L93.0786 46.4443L60.5426 78.9813L38.4836 68.2833ZM74.2676 104.066L63.5676 82.0073L96.1056 49.4723L74.2676 104.066Z" fill="#001560"/>
</svg>
