<svg width="20" height="18" viewBox="0 0 20 18" fill="none" xmlns="http://www.w3.org/2000/svg">
    <path d="M1.92288 12.1386H7.20887L6.05188 15.0306C5.88643 15.4426 5.84563 15.8942 5.93451 16.3292C6.0234 16.7642 6.23807 17.1635 6.55188 17.4776C6.72837 17.6539 6.94113 17.7897 7.17538 17.8755C7.40963 17.9614 7.65976 17.9952 7.90839 17.9746C8.15702 17.9541 8.3982 17.8796 8.61517 17.7565C8.83215 17.6334 9.01972 17.4645 9.16487 17.2616L12.2559 12.9366C12.7172 12.2923 13.2302 11.6866 13.7899 11.1256L14.7799 10.1356C14.825 10.0906 14.8607 10.0371 14.8851 9.97826C14.9094 9.9194 14.9219 9.85631 14.9219 9.7926V2.3516C14.9219 2.22266 14.8709 2.09895 14.7799 2.0076L13.6709 0.893604C13.3884 0.609636 13.0524 0.384499 12.6823 0.231218C12.3122 0.0779381 11.9154 -0.000444412 11.5149 0.00060463H5.48888C5.01309 0.000986099 4.5476 0.139162 4.14867 0.398434C3.74973 0.657705 3.43443 1.02697 3.24087 1.46161L0.284875 8.1126C0.0957403 8.53677 -0.00139141 8.99619 -0.000124931 9.4606V10.2146C0.000404358 10.7245 0.203143 11.2135 0.563632 11.5741C0.924121 11.9348 1.41293 12.1378 1.92288 12.1386Z" fill="#001560"/>
    <path d="M18.253 10.7871C18.7163 10.7871 19.1607 10.6031 19.4883 10.2754C19.8159 9.9478 20 9.50344 20 9.04011V2.47111C20 2.00778 19.8159 1.56342 19.4883 1.23579C19.1607 0.908167 18.7163 0.724109 18.253 0.724109C17.7897 0.724109 17.3453 0.908167 17.0177 1.23579C16.6901 1.56342 16.506 2.00778 16.506 2.47111V9.04011C16.506 9.50344 16.6901 9.9478 17.0177 10.2754C17.3453 10.6031 17.7897 10.7871 18.253 10.7871Z" fill="#001560"/>
</svg>
