<svg width="20" height="20" viewBox="0 0 20 20" fill="none" xmlns="http://www.w3.org/2000/svg">
    <path d="M2.046 13.0058H7.762L6.506 16.1468C6.32961 16.5859 6.28619 17.0671 6.38114 17.5306C6.47608 17.9941 6.7052 18.4195 7.04 18.7538C7.22736 18.9415 7.45338 19.086 7.70231 19.1774C7.95124 19.2687 8.2171 19.3047 8.48136 19.2828C8.74562 19.2609 9.00193 19.1817 9.23243 19.0506C9.46293 18.9195 9.66208 18.7398 9.816 18.5238L13.139 13.8728C13.634 13.1786 14.1859 12.5267 14.789 11.9238L15.21 11.5028C15.4402 12.0285 15.8442 12.4589 16.3542 12.7219C16.8642 12.9849 17.4492 13.0644 18.0109 12.9471C18.5726 12.8299 19.0769 12.5229 19.4391 12.0779C19.8013 11.6328 19.9993 11.0767 20 10.5028V2.50284C19.9993 1.92902 19.8013 1.37289 19.4391 0.927816C19.0769 0.48274 18.5726 0.175808 18.0109 0.0585403C17.4492 -0.0587273 16.8642 0.0208092 16.3542 0.283796C15.8442 0.546783 15.4402 0.977217 15.21 1.50284L14.661 0.952837C14.3595 0.650043 14.001 0.409941 13.6063 0.246376C13.2115 0.0828114 12.7883 -0.000980377 12.361 -0.000162125H5.88C5.37217 -0.000226974 4.87521 0.146896 4.44927 0.423407C4.02332 0.699917 3.68665 1.09396 3.48 1.55784L0.299999 8.71484C0.101006 9.16595 -0.00119209 9.65378 0 10.1468V10.9578C0.000265121 11.5006 0.215845 12.021 0.59943 12.405C0.983015 12.789 1.50326 13.005 2.046 13.0058ZM17.5 1.00584C17.8978 1.00584 18.2794 1.16387 18.5607 1.44518C18.842 1.72648 19 2.10801 19 2.50584V10.5058C19 10.9037 18.842 11.2852 18.5607 11.5665C18.2794 11.8478 17.8978 12.0058 17.5 12.0058C17.1022 12.0058 16.7206 11.8478 16.4393 11.5665C16.158 11.2852 16 10.9037 16 10.5058V2.50584C16 2.10801 16.158 1.72648 16.4393 1.44518C16.7206 1.16387 17.1022 1.00584 17.5 1.00584ZM1 10.1468C0.999437 9.79264 1.07373 9.44232 1.218 9.11884L4.4 1.96984C4.52765 1.68286 4.73577 1.43905 4.99916 1.26795C5.26256 1.09686 5.56991 1.00581 5.884 1.00584H12.358C12.6552 1.00463 12.9496 1.06244 13.2243 1.17591C13.4989 1.28938 13.7483 1.45625 13.958 1.66684L15 2.71284V10.2988L14.082 11.2168C13.4398 11.8588 12.8518 12.5529 12.324 13.2918L9 17.9468C8.93098 18.0442 8.84154 18.1254 8.7379 18.1846C8.63427 18.2439 8.51895 18.2798 8.4 18.2898C8.28051 18.2994 8.16038 18.283 8.04784 18.2417C7.9353 18.2005 7.83301 18.1353 7.748 18.0508C7.55185 17.8548 7.41761 17.6055 7.36196 17.3339C7.30631 17.0622 7.33171 16.7802 7.435 16.5228L8.965 12.6958C8.99519 12.62 9.00637 12.538 8.99756 12.4569C8.98875 12.3757 8.96022 12.298 8.91445 12.2304C8.86869 12.1629 8.80708 12.1075 8.73501 12.0693C8.66294 12.031 8.5826 12.0109 8.501 12.0108H2.047C1.90917 12.0108 1.77269 11.9836 1.6454 11.9308C1.51812 11.8779 1.40252 11.8004 1.30524 11.7028C1.20797 11.6051 1.13093 11.4892 1.07855 11.3617C1.02617 11.2342 0.999474 11.0977 1 10.9598V10.1468Z" fill="#001560"/>
</svg>
