<svg width="36" height="9" viewBox="0 0 36 9" fill="none" xmlns="http://www.w3.org/2000/svg">
    <path d="M34.682 1.31804C35.3113 1.94738 35.7399 2.7492 35.9135 3.62212C36.0872 4.49503 35.998 5.39983 35.6575 6.22209C35.3169 7.04436 34.7401 7.74716 34 8.24162C33.26 8.73609 32.39 9 31.5 9C30.61 9 29.74 8.73609 29 8.24162C28.2599 7.74716 27.6831 7.04436 27.3425 6.22209C27.0019 5.39983 26.9128 4.49503 27.0865 3.62212C27.2601 2.7492 27.6887 1.94738 28.318 1.31804C28.7359 0.900169 29.2319 0.568694 29.7779 0.342545C30.3239 0.116395 30.909 0 31.5 0C32.0909 0 32.6761 0.116395 33.2221 0.342545C33.7681 0.568694 34.2641 0.900169 34.682 1.31804Z" fill="#001560"/>
    <path d="M21.182 1.31804C21.8113 1.94738 22.2399 2.7492 22.4136 3.62212C22.5872 4.49503 22.4981 5.39983 22.1575 6.22209C21.8169 7.04436 21.2401 7.74716 20.5001 8.24162C19.76 8.73609 18.89 9 18 9C17.11 9 16.24 8.73609 15.4999 8.24162C14.7599 7.74716 14.1831 7.04436 13.8426 6.22209C13.502 5.39983 13.4128 4.49503 13.5865 3.62212C13.7601 2.7492 14.1887 1.94738 14.818 1.31804C15.2359 0.900169 15.7319 0.568694 16.2779 0.342545C16.8239 0.116395 17.4091 0 18 0C18.591 0 19.1761 0.116395 19.7221 0.342545C20.2681 0.568694 20.7641 0.900169 21.182 1.31804Z" fill="#001560"/>
    <path d="M7.682 1.31804C8.31133 1.94738 8.73991 2.7492 8.91354 3.62212C9.08717 4.49503 8.99805 5.39983 8.65746 6.22209C8.31686 7.04436 7.74008 7.74716 7.00006 8.24162C6.26004 8.73609 5.39002 9 4.5 9C3.60999 9 2.73996 8.73609 1.99994 8.24162C1.25992 7.74716 0.683145 7.04436 0.342549 6.22209C0.00195342 5.39983 -0.0871648 4.49503 0.0864642 3.62212C0.260093 2.7492 0.688671 1.94738 1.318 1.31804C1.73587 0.900169 2.23195 0.568694 2.77791 0.342545C3.32388 0.116395 3.90905 0 4.5 0C5.09095 0 5.67612 0.116395 6.22209 0.342545C6.76806 0.568694 7.26414 0.900169 7.682 1.31804Z" fill="#001560"/>
</svg>
