<svg width="53" height="53" viewBox="0 0 53 53" fill="none" xmlns="http://www.w3.org/2000/svg">
  <path
    d="M26.5 53C41.1355 53 53 41.1355 53 26.5C53 11.8645 41.1355 0 26.5 0C11.8645 0 0 11.8645 0 26.5C0 41.1355 11.8645 53 26.5 53Z"
    fill="#001560"
  />
  <path
    d="M18.3203 31.7709V35.1799H21.7293L31.7873 25.1199L28.3783 21.7109L18.3203 31.7709Z"
    fill="white"
  />
  <path
    d="M34.4148 21.208L32.2928 19.086C32.122 18.9158 31.8908 18.8203 31.6497 18.8203C31.4087 18.8203 31.1775 18.9158 31.0067 19.086L29.3438 20.749L32.7527 24.158L34.4158 22.495C34.5861 22.324 34.6816 22.0925 34.6814 21.8513C34.6812 21.61 34.5853 21.3786 34.4148 21.208V21.208Z"
    fill="white"
  />
</svg>
