<svg width="26" height="26" viewBox="0 0 26 26" fill="none" xmlns="http://www.w3.org/2000/svg">
    <path d="M6.09436 13.0008C6.09283 11.7586 6.42842 10.5393 7.06536 9.47285V5.08984H2.68236C0.94276 7.3602 0 10.1407 0 13.0008C0 15.861 0.94276 18.6415 2.68236 20.9118H7.06536V16.5288C6.42842 15.4624 6.09283 14.243 6.09436 13.0008V13.0008Z" fill="#FBBD00"/>
    <path d="M13.0001 19.9055L9.95312 22.9525L13.0001 25.9995C15.8616 26.0076 18.6446 25.0641 20.9111 23.3174V18.9395H16.5331C15.4639 19.5736 14.2433 19.9074 13.0001 19.9055V19.9055Z" fill="#0F9D58"/>
    <path d="M7.06464 16.5273L2.68164 20.9103C3.02865 21.3611 3.40443 21.789 3.80664 22.1913C5.01092 23.4023 6.44341 24.3624 8.02122 25.0161C9.59902 25.6697 11.2908 26.0039 12.9986 25.9994V19.9054C11.8017 19.9046 10.6254 19.5928 9.58517 19.0006C8.54493 18.4085 7.67638 17.5562 7.06464 16.5273V16.5273Z" fill="#31AA52"/>
    <path d="M26 12.9956C26.0001 12.2058 25.9288 11.4176 25.787 10.6406L25.673 10.0156H13V16.1096H19.167C18.5767 17.2838 17.6623 18.2641 16.532 18.9346L20.91 23.3126C21.3608 22.9656 21.7887 22.5898 22.191 22.1876C23.4022 20.9834 24.3624 19.551 25.0162 17.9732C25.6701 16.3953 26.0044 14.7035 26 12.9956V12.9956Z" fill="#3C79E6"/>
    <path d="M17.8831 8.11705L18.4221 8.65605L22.7311 4.34705L22.1921 3.80805C20.9878 2.59708 19.5553 1.63699 17.9775 0.983348C16.3997 0.329705 14.708 -0.00451038 13.0001 4.59668e-05L9.95312 3.04705L13.0001 6.09405C13.9074 6.09165 14.8061 6.26922 15.6442 6.61647C16.4824 6.96371 17.2434 7.47375 17.8831 8.11705V8.11705Z" fill="#CF2D48"/>
    <path d="M13.0006 6.09405V4.59668e-05C11.2928 -0.00451038 9.60098 0.329705 8.02317 0.983348C6.44536 1.63699 5.01287 2.59708 3.80859 3.80805C3.40638 4.21036 3.0306 4.63825 2.68359 5.08905L7.06059 9.47205C7.67286 8.44232 8.54235 7.58949 9.58373 6.99727C10.6251 6.40505 11.8026 6.09379 13.0006 6.09405V6.09405Z" fill="#EB4132"/>
</svg>
