<svg width="26" height="26" viewBox="0 0 26 26" fill="none" xmlns="http://www.w3.org/2000/svg">
    <path d="M24.8008 13C24.8008 15.3734 24.097 17.6935 22.7784 19.6668C21.4598 21.6402 19.5857 23.1783 17.393 24.0866C15.2003 24.9948 12.7875 25.2324 10.4597 24.7694C8.13193 24.3064 5.99374 23.1635 4.31551 21.4853C2.63727 19.8071 1.49439 17.6689 1.03136 15.3411C0.568341 13.0133 0.805981 10.6005 1.71423 8.4078C2.62248 6.21509 4.16055 4.34094 6.13394 3.02236C8.10733 1.70379 10.4274 1 12.8008 1C15.9834 1 19.0356 2.26428 21.2861 4.51472C23.5365 6.76516 24.8008 9.8174 24.8008 13Z" stroke="#001560" stroke-linecap="round" stroke-linejoin="round"/>
    <path d="M8.00098 15.4004C8.58316 16.1201 9.31282 16.7067 10.1408 17.1207C10.9688 17.5347 11.8759 17.7665 12.801 17.8004C13.7261 17.7665 14.6332 17.5347 15.4611 17.1207C16.2891 16.7067 17.0188 16.1201 17.601 15.4004" stroke="#001560" stroke-linecap="round" stroke-linejoin="round"/>
    <path d="M9.20117 9.40039H9.21317" stroke="#001560" stroke-linecap="round" stroke-linejoin="round"/>
    <path d="M16.4004 9.40039H16.4124" stroke="#001560" stroke-linecap="round" stroke-linejoin="round"/>
</svg>
