<svg width="20" height="18" viewBox="0 0 20 18" fill="none" xmlns="http://www.w3.org/2000/svg">
    <path d="M18.0771 5.84186H12.7911L13.9481 2.94986C14.1136 2.53784 14.1544 2.08631 14.0655 1.6513C13.9766 1.21629 13.7619 0.816961 13.4481 0.502865C13.2716 0.326547 13.0589 0.190759 12.8246 0.104931C12.5904 0.0191024 12.3402 -0.0147092 12.0916 0.00584348C11.843 0.0263962 11.6018 0.100821 11.3848 0.223949C11.1679 0.347077 10.9803 0.515958 10.8351 0.718865L7.74413 5.04387C7.28279 5.68816 6.76976 6.29383 6.21013 6.85487L5.22013 7.84486C5.17505 7.88988 5.1393 7.94335 5.11493 8.00221C5.09056 8.06107 5.07806 8.12416 5.07813 8.18787V15.6289C5.07805 15.7578 5.12912 15.8815 5.22013 15.9729L6.32913 17.0869C6.61163 17.3708 6.94764 17.596 7.31771 17.7493C7.68778 17.9025 8.08457 17.9809 8.48512 17.9799H14.5111C14.9869 17.9795 15.4524 17.8413 15.8513 17.582C16.2503 17.3228 16.5656 16.9535 16.7591 16.5189L19.7151 9.86786C19.9043 9.4437 20.0014 8.98428 20.0001 8.51987V7.76587C19.9996 7.25592 19.7969 6.76701 19.4364 6.40633C19.0759 6.04565 18.5871 5.84266 18.0771 5.84186Z" fill="#001560"/>
    <path d="M1.747 7.19336C1.28367 7.19336 0.83931 7.37742 0.511684 7.70504C0.184058 8.03267 0 8.47703 0 8.94036V15.5094C6.9042e-09 15.9727 0.184058 16.417 0.511684 16.7447C0.83931 17.0723 1.28367 17.2564 1.747 17.2564C2.21033 17.2564 2.65469 17.0723 2.98232 16.7447C3.30994 16.417 3.494 15.9727 3.494 15.5094V8.94036C3.494 8.47703 3.30994 8.03267 2.98232 7.70504C2.65469 7.37742 2.21033 7.19336 1.747 7.19336Z" fill="#001560"/>
</svg>
