<svg width="17" height="16" viewBox="0 0 17 16" fill="none" xmlns="http://www.w3.org/2000/svg">
<path d="M0.845217 15.9201C0.622401 15.9201 0.408594 15.8321 0.250308 15.6753C0.0920225 15.5185 0.00206311 15.3055 0 15.0827L0 4.23576C0 3.68797 0.107894 3.14555 0.317522 2.63947C0.527149 2.13338 0.834405 1.67354 1.22175 1.2862C2.00402 0.503929 3.06501 0.0644531 4.1713 0.0644531H12.5217C13.628 0.0644531 14.689 0.503929 15.4713 1.2862C16.2536 2.06847 16.693 3.12946 16.693 4.23576V9.24445C16.693 10.3508 16.2536 11.4117 15.4713 12.194C14.689 12.9763 13.628 13.4158 12.5217 13.4158H4.45304L1.32261 15.7636C1.18325 15.8634 1.01662 15.918 0.845217 15.9201ZM4.17913 1.73924C3.51494 1.73924 2.87795 2.00309 2.40829 2.47274C1.93863 2.9424 1.67478 3.57939 1.67478 4.24358V13.4158L3.67826 11.9131C3.82317 11.8059 3.99884 11.7482 4.17913 11.7488H12.5217C13.1859 11.7488 13.8229 11.485 14.2926 11.0153C14.7622 10.5456 15.0261 9.90865 15.0261 9.24445V4.23576C15.0261 3.57156 14.7622 2.93457 14.2926 2.46492C13.8229 1.99526 13.1859 1.73141 12.5217 1.73141L4.17913 1.73924Z" fill="white"/>
</svg>
