<svg width="17" height="17" viewBox="0 0 17 17" fill="#001560" xmlns="http://www.w3.org/2000/svg">
    <path opacity="0.5" d="M12.0548 13.5658C10.6155 14.7422 8.78531 15.3321 6.92997 15.2178C5.07463 15.1034 3.33074 14.2933 2.04674 12.9491C0.762739 11.605 0.0331875 9.82586 0.00384997 7.96723C-0.0254876 6.1086 0.64755 4.30734 1.88849 2.92335C3.12942 1.53935 4.84687 0.674542 6.69768 0.501714C8.54849 0.328887 10.3964 0.860767 11.8721 1.99108C13.3478 3.1214 14.3427 4.76691 14.658 6.59884C14.9733 8.43077 14.5857 10.3142 13.5728 11.8728L16.9098 15.2098L15.2998 16.8148L12.0548 13.5658ZM1.73679 7.85483C1.73679 8.97131 2.06786 10.0627 2.68814 10.991C3.30842 11.9193 4.19005 12.6429 5.22154 13.0701C6.25303 13.4974 7.38805 13.6092 8.48307 13.3914C9.5781 13.1736 10.5839 12.6359 11.3734 11.8465C12.1629 11.057 12.7005 10.0511 12.9183 8.95612C13.1361 7.8611 13.0243 6.72607 12.5971 5.69459C12.1698 4.6631 11.4463 3.78147 10.518 3.16119C9.58967 2.54091 8.49826 2.20983 7.38179 2.20983C5.88521 2.21169 4.45046 2.80702 3.39222 3.86526C2.33397 4.9235 1.73864 6.35825 1.73679 7.85483Z" fill="white"/>
</svg>

