<svg width="19" height="19" viewBox="0 0 19 19" fill="none" xmlns="http://www.w3.org/2000/svg">
    <path d="M15.2931 0C14.4512 0.000265066 13.6437 0.334858 13.0484 0.930229C12.453 1.5256 12.1184 2.33302 12.1181 3.175C12.118 3.34239 12.1307 3.50955 12.1561 3.675L6.09315 6.984C5.6332 6.44613 5.01945 6.06215 4.33459 5.88377C3.64972 5.70539 2.92664 5.74119 2.26275 5.98635C1.59885 6.2315 1.02604 6.67423 0.621467 7.2549C0.216895 7.83558 0 8.52629 0 9.234C0 9.94171 0.216895 10.6324 0.621467 11.2131C1.02604 11.7938 1.59885 12.2365 2.26275 12.4817C2.92664 12.7268 3.64972 12.7626 4.33459 12.5842C5.01945 12.4059 5.6332 12.0219 6.09315 11.484L12.1571 14.794C12.0326 15.5735 12.2035 16.3715 12.6365 17.0316C13.0695 17.6916 13.7333 18.1663 14.498 18.3625C15.2626 18.5587 16.073 18.4624 16.7703 18.0924C17.4676 17.7224 18.0017 17.1054 18.2679 16.3622C18.5341 15.619 18.5132 14.8032 18.2094 14.0746C17.9056 13.346 17.3407 12.7571 16.6253 12.4232C15.91 12.0894 15.0958 12.0346 14.3421 12.2696C13.5885 12.5047 12.9498 13.0127 12.5511 13.694L6.68315 10.494C7.00548 9.68631 7.00548 8.7857 6.68315 7.978L12.5501 4.778C12.8311 5.25834 13.2334 5.6564 13.7166 5.93229C14.1999 6.20819 14.7472 6.35223 15.3036 6.34997C15.8601 6.34772 16.4062 6.19926 16.8872 5.91946C17.3682 5.63966 17.7672 5.23836 18.0443 4.75576C18.3213 4.27317 18.4667 3.72623 18.4658 3.16976C18.4648 2.61329 18.3177 2.06684 18.0391 1.58516C17.7604 1.10348 17.3601 0.703498 16.8781 0.425288C16.3962 0.147078 15.8496 0.000416647 15.2931 0V0Z" fill="#001560"/>
</svg>
