<svg width="19" height="19" viewBox="0 0 19 19" fill="none" xmlns="http://www.w3.org/2000/svg">
    <path d="M12.6181 3.17534V3.17516C12.6184 2.46573 12.9003 1.78542 13.4019 1.28378C13.9035 0.782203 14.5837 0.500293 15.293 0.5C15.7618 0.500398 16.2222 0.623961 16.6282 0.858313C17.0342 1.09271 17.3715 1.42971 17.6063 1.83553C17.841 2.24135 17.965 2.70175 17.9658 3.17059C17.9665 3.63942 17.8441 4.10023 17.6107 4.50682C17.3772 4.91342 17.041 5.25152 16.6358 5.48726C16.2305 5.723 15.7704 5.84808 15.3016 5.84998C14.8328 5.85188 14.3717 5.73052 13.9645 5.49807C13.5574 5.26563 13.2184 4.93025 12.9817 4.52556L12.7367 4.10669L12.3107 4.33905L6.44373 7.53905L6.05438 7.75141L6.21876 8.16333C6.49361 8.85203 6.49361 9.61997 6.21876 10.3087L6.05436 10.7206L6.44376 10.933L12.3118 14.133L12.7377 14.3652L12.9827 13.9465C13.3185 13.3727 13.8564 12.9449 14.491 12.747C15.1257 12.549 15.8114 12.5951 16.4138 12.8763C17.0163 13.1575 17.492 13.6535 17.7479 14.2671C18.0038 14.8807 18.0214 15.5677 17.7972 16.1936C17.573 16.8195 17.1232 17.3391 16.5359 17.6507C15.9487 17.9623 15.2662 18.0435 14.6223 17.8782C13.9783 17.7129 13.4192 17.3132 13.0546 16.7573C12.6899 16.2014 12.546 15.5294 12.6509 14.8729L12.7066 14.5243L12.3967 14.3551L6.33271 11.0451L5.97672 10.8508L5.71314 11.159C5.31962 11.6192 4.79452 11.9478 4.20856 12.1004C3.62261 12.253 3.00396 12.2224 2.43595 12.0126C1.86794 11.8029 1.37785 11.4241 1.03171 10.9273C0.68557 10.4305 0.5 9.8395 0.5 9.234C0.5 8.6285 0.68557 8.03754 1.03171 7.54074C1.37785 7.04393 1.86794 6.66514 2.43595 6.45539C3.00396 6.24564 3.62261 6.21501 4.20856 6.36763C4.79452 6.52024 5.31962 6.84877 5.71314 7.30896L5.97671 7.61717L6.33268 7.42289L12.3957 4.11389L12.7036 3.94583L12.6504 3.5991C12.6288 3.45888 12.6181 3.31721 12.6181 3.17534Z" stroke="#001560"/>
</svg>
