<svg width="22" height="18" viewBox="0 0 22 18" fill="none" xmlns="http://www.w3.org/2000/svg">
    <path d="M22 2.12107C21.1905 2.48081 20.3206 2.72394 19.4076 2.83332C20.3396 2.27351 21.0552 1.38703 21.3922 0.330804C20.5062 0.8577 19.5369 1.22893 18.5261 1.42846C17.7027 0.549388 16.5297 0 15.2315 0C12.7388 0 10.7178 2.0253 10.7178 4.52325C10.7178 4.87783 10.7577 5.22301 10.8347 5.55416C7.08348 5.36546 3.7577 3.56469 1.53149 0.828C1.14305 1.49607 0.920477 2.27317 0.920477 3.10203C0.920477 4.67139 1.71738 6.05584 2.92841 6.86704C2.21164 6.84455 1.51065 6.65053 0.883953 6.30121C0.883695 6.32015 0.883695 6.3391 0.883695 6.35813C0.883695 8.54974 2.43951 10.378 4.50424 10.7935C3.83959 10.9747 3.14242 11.0012 2.46598 10.8711C3.0403 12.6681 4.70723 13.9758 6.68224 14.0124C5.13752 15.2256 3.19129 15.9488 1.07671 15.9488C0.712336 15.9488 0.353117 15.9273 0 15.8856C1.99745 17.169 4.36992 17.9178 6.91883 17.9178C15.221 17.9178 19.7608 11.0252 19.7608 5.04784C19.7608 4.85165 19.7565 4.65657 19.7478 4.46262C20.6314 3.82245 21.3941 3.02952 22 2.12107" fill="#55ACEE"/>
</svg>
