<svg width="21" height="20" viewBox="0 0 21 20" fill="none" xmlns="http://www.w3.org/2000/svg">
    <path d="M5.23481 15.7209C4.54551 15.6907 3.88453 15.438 3.3509 15.0007C2.81727 14.5633 2.43972 13.9648 2.27481 13.2949L2.24581 13.1859C2.15173 12.8502 2.10296 12.5035 2.10081 12.1549V5.67188L0.0738065 13.3719C-0.0652413 13.8957 -0.00649446 14.4524 0.238831 14.9357C0.484157 15.419 0.898875 15.7949 1.40381 15.9919L14.3268 19.9299C14.483 19.9761 14.6449 19.9997 14.8078 19.9999C15.2397 19.9821 15.6529 19.819 15.9803 19.5369C16.3078 19.2548 16.5303 18.8703 16.6118 18.4459L17.3648 15.7219L5.23481 15.7209Z" fill="#808081" fill-opacity="0.69"/>
    <path d="M7.52785 5.72806C7.85137 5.72806 8.16764 5.63213 8.43666 5.45241C8.70567 5.27269 8.91536 5.01724 9.03922 4.71836C9.16307 4.41947 9.19553 4.09058 9.13248 3.77325C9.06944 3.45593 8.91372 3.16442 8.68503 2.93558C8.45633 2.70674 8.16491 2.55085 7.84763 2.48761C7.53034 2.42437 7.20143 2.45663 6.90247 2.5803C6.60351 2.70397 6.34793 2.91351 6.16805 3.18242C5.98816 3.45132 5.89204 3.76753 5.89185 4.09106C5.89211 4.52496 6.06453 4.94103 6.37125 5.24794C6.67797 5.55485 7.09394 5.72753 7.52785 5.72806Z" fill="#808081" fill-opacity="0.69"/>
    <path d="M17.9669 0H5.69393C5.1518 0.000793547 4.63211 0.216503 4.24877 0.599843C3.86543 0.983183 3.64972 1.50288 3.64893 2.045V11.045C3.64972 11.5871 3.86543 12.1068 4.24877 12.4902C4.63211 12.8735 5.1518 13.0892 5.69393 13.09H17.9669C18.5091 13.0892 19.0287 12.8735 19.4121 12.4902C19.7954 12.1068 20.0111 11.5871 20.0119 11.045V2.045C20.0111 1.50288 19.7954 0.983183 19.4121 0.599843C19.0287 0.216503 18.5091 0.000793547 17.9669 0ZM5.69393 1.636H17.9669C18.0754 1.636 18.1794 1.67909 18.2561 1.75579C18.3328 1.8325 18.3759 1.93653 18.3759 2.045V7.854L15.7919 4.838C15.6547 4.68123 15.4856 4.55553 15.2959 4.46931C15.1062 4.38309 14.9003 4.33832 14.6919 4.338C14.4831 4.33906 14.2771 4.3858 14.0883 4.47494C13.8995 4.56408 13.7324 4.69346 13.5989 4.854L10.5629 8.5L9.57293 7.512C9.3037 7.24325 8.93883 7.09231 8.55843 7.09231C8.17802 7.09231 7.81315 7.24325 7.54393 7.512L5.28493 9.768V2.045C5.28493 1.93653 5.32802 1.8325 5.40472 1.75579C5.48142 1.67909 5.58545 1.636 5.69393 1.636Z" fill="#808081" fill-opacity="0.69"/>
</svg>
