<svg width="21" height="12" viewBox="0 0 21 12" fill="none" xmlns="http://www.w3.org/2000/svg">
    <path d="M11.9649 1.4716e-05H2.83793C2.25843 0.00290365 1.70348 0.23432 1.29361 0.643997C0.88375 1.05367 0.65208 1.60852 0.648926 2.18801L0.648926 9.56401C0.651817 10.1437 0.883371 10.6988 1.29326 11.1087C1.70316 11.5186 2.25826 11.7501 2.83793 11.753H11.9649C12.5446 11.7501 13.0997 11.5186 13.5096 11.1087C13.9195 10.6988 14.151 10.1437 14.1539 9.56401V2.18801C14.1549 1.90033 14.0989 1.61532 13.9892 1.34938C13.8795 1.08344 13.7183 0.841822 13.5148 0.63845C13.3113 0.435078 13.0696 0.273961 12.8036 0.16439C12.5376 0.0548194 12.2526 -0.00104198 11.9649 1.4716e-05Z" fill="#808081" fill-opacity="0.69"/>
    <path d="M19.0341 1.20527C18.9018 1.23329 18.7757 1.28514 18.662 1.35827L15.248 3.32826V8.40626L18.6841 10.3763C18.8331 10.4644 18.9982 10.5219 19.1697 10.5453C19.3412 10.5688 19.5157 10.5577 19.6829 10.5128C19.8501 10.4679 20.0067 10.3901 20.1434 10.2839C20.2801 10.1776 20.3942 10.0452 20.479 9.89427C20.593 9.69401 20.6533 9.46768 20.6541 9.23726V2.47426C20.6522 2.27662 20.6058 2.08194 20.5184 1.90465C20.431 1.72737 20.3049 1.57202 20.1493 1.45014C19.9937 1.32826 19.8126 1.24296 19.6196 1.20057C19.4265 1.15818 19.2264 1.15978 19.0341 1.20527Z" fill="#808081" fill-opacity="0.69"/>
</svg>
